<?xml version="1.0" encoding="utf-8"?>
<!-- Generator: Adobe Illustrator 22.0.0, SVG Export Plug-In . SVG Version: 6.00 Build 0)  -->
<svg version="1.1" id="Livello_1" xmlns="http://www.w3.org/2000/svg" xmlns:xlink="http://www.w3.org/1999/xlink" x="0px" y="0px"
	 viewBox="0 0 37 14" style="enable-background:new 0 0 37 14;" xml:space="preserve">
<style type="text/css">
	.st0{fill:#D0021B;}
</style>
<title>Path</title>
<desc>Created with Sketch.</desc>
<g id="Device">
	<g id="HOME" transform="translate(-298.000000, -485.000000)">
		
			<g id="noun_left-arrow_2336251" transform="translate(316.500000, 492.000000) scale(-1, 1) translate(-316.500000, -492.000000) translate(298.000000, 485.000000)">
			<g id="Group">
				<path id="Path" class="st0" d="M30.6,13.6c-0.3,0.3-0.7,0.3-1,0c-0.3-0.2-0.3-0.7,0-0.9l5.1-5.1h-25C9.3,7.6,9,7.3,9,7
					s0.3-0.7,0.7-0.7h25l-5.1-5.1c-0.3-0.2-0.2-0.7,0-0.9c0.3-0.3,0.7-0.2,1,0l6.3,6.2c0.2,0.2,0.3,0.6,0,0.9L30.6,13.6z"/>
			</g>
		</g>
	</g>
</g>
</svg>
