<?xml version="1.0" encoding="UTF-8"?>
<svg width="37px" height="14px" viewBox="0 0 37 14" version="1.1" xmlns="http://www.w3.org/2000/svg" xmlns:xlink="http://www.w3.org/1999/xlink">
    <!-- Generator: Sketch 52.6 (67491) - http://www.bohemiancoding.com/sketch -->
    <title>Path</title>
    <desc>Created with Sketch.</desc>
    <g id="Device" stroke="none" stroke-width="1" fill="none" fill-rule="evenodd">
        <g id="HOME" transform="translate(-298.000000, -485.000000)" fill="#D0021B">
            <g id="noun_left-arrow_2336251" transform="translate(316.500000, 492.000000) scale(-1, 1) translate(-316.500000, -492.000000) translate(298.000000, 485.000000)">
                <g id="Group">
                    <path d="M6.44603339,13.5894744 C6.73448557,13.8575581 7.16505948,13.8493209 7.42968557,13.6148698 C7.69434643,13.3804837 7.70728557,12.9418279 7.456816,12.694093 L2.31573774,7.60688372 L36.3043743,7.60688372 C36.6885482,7.60688372 36.9999917,7.31535814 36.9999917,6.95572093 C36.9999917,6.59608372 36.6885482,6.30455814 36.3043743,6.30455814 L2.31573774,6.30455814 L7.456816,1.21734558 C7.70725078,0.969610698 7.69187687,0.533331628 7.42968557,0.296568837 C7.145616,0.0400432558 6.69646817,0.0742618605 6.44603339,0.321964186 L0.185407304,6.50801395 C-0.0266274783,6.68799535 -0.0946274783,7.14465581 0.185407304,7.40336279 L6.44603339,13.5894744 Z" id="Path" transform="translate(18.500000, 6.955100) scale(-1, 1) translate(-18.500000, -6.955100) "></path>
                </g>
            </g>
        </g>
    </g>
</svg>