<?xml version="1.0" encoding="UTF-8"?>
<svg width="82px" height="82px" viewBox="0 0 82 82" version="1.1" xmlns="http://www.w3.org/2000/svg" xmlns:xlink="http://www.w3.org/1999/xlink">
    <!-- Generator: Sketch 52.6 (67491) - http://www.bohemiancoding.com/sketch -->
    <title>Group 3</title>
    <desc>Created with Sketch.</desc>
    <defs>
        <polygon id="path-1" points="0 0 81.241 0 81.241 81.425 0 81.425"></polygon>
    </defs>
    <g id="Page-1" stroke="none" stroke-width="1" fill="none" fill-rule="evenodd">
        <g id="Group-3">
            <mask id="mask-2" fill="white">
                <use xlink:href="#path-1"></use>
            </mask>
            <g id="Clip-2"></g>
            <path d="M74.1156,18.225 L68.1156,24.225 L57.1156,13.225 L63.1156,7.225 C64.7166,5.625 67.2166,5.625 68.8156,7.225 L74.2166,12.625 C75.7166,14.125 75.7166,16.725 74.1156,18.225 Z M7.5156,73.825 L11.2156,61.925 L19.5156,70.225 L7.5156,73.825 Z M73.0156,2.925 C69.1156,-0.975 62.8156,-0.975 58.9156,2.925 L7.6156,54.125 C7.4156,54.325 7.3156,54.425 7.2156,54.625 C7.2156,54.625 7.2156,54.725 7.1156,54.725 C7.0156,54.925 6.9156,55.025 6.9156,55.225 L6.9156,55.325 L0.1156,77.525 C-0.1844,78.625 0.1156,79.725 0.8156,80.525 C1.4156,81.125 2.1156,81.425 2.9156,81.425 C3.2156,81.425 3.5156,81.425 3.8156,81.325 L25.9156,74.525 L26.0156,74.525 C26.2156,74.425 26.4156,74.425 26.5156,74.325 C26.5156,74.325 26.6156,74.325 26.6156,74.225 C26.8156,74.125 27.0156,74.025 27.1156,73.825 L78.3156,22.625 C82.2166,18.725 82.2166,12.425 78.3156,8.525 L73.0156,2.925 Z" id="Fill-1" fill="#FFFFFF" mask="url(#mask-2)"></path>
        </g>
    </g>
</svg>