<?xml version="1.0" encoding="UTF-8"?>
<svg width="229px" height="138px" viewBox="0 0 229 138" version="1.1" xmlns="http://www.w3.org/2000/svg" xmlns:xlink="http://www.w3.org/1999/xlink">
    <!-- Generator: Sketch 52.6 (67491) - http://www.bohemiancoding.com/sketch -->
    <title>836</title>
    <desc>Created with Sketch.</desc>
    <defs>
        <path d="M40.755196,1.9132931 C44.2541407,-0.0372068966 49.5441709,-0.242798851 52.5703518,1.45488506 L95.0550754,25.2854253 C95.9144221,24.3738563 97.7178191,22.4481609 97.7178191,22.4481609 L97.6971357,28.3721667 L97.6966432,28.3716897 C97.7601709,29.7068448 96.7786935,31.1297701 94.8029347,32.2307126 L6.65365829,81.3690977 C4.82760804,82.3870402 2.51598995,82.9246322 0.291537688,82.9704253 L0.375256281,24.4225115 L40.755196,1.9132931" id="path-1"></path>
        <linearGradient x1="0%" y1="49.9997752%" x2="105.817474%" y2="49.9997752%" id="linearGradient-3">
            <stop stop-color="#D4EAF2" offset="0%"></stop>
            <stop stop-color="#83B0D1" offset="100%"></stop>
        </linearGradient>
        <path d="M139.303087,24.5546988 L97.9969652,1.09108434 C95.7532474,-0.183614458 91.8307944,-0.0298795181 89.2358049,1.43566265 L2.54586063,50.3744578 C-0.0491289199,51.8395181 -0.333585366,54.0607229 1.90964111,55.3354217 L43.2162544,78.7995181 C45.4599721,80.0742169 49.3819338,79.92 51.9774146,78.4554217 L138.667359,29.5156627 C141.262348,28.0506024 141.546805,25.8298795 139.303087,24.5546988" id="path-4"></path>
        <radialGradient cx="99.6061403%" cy="32.7370806%" fx="99.6061403%" fy="32.7370806%" r="126.118932%" gradientTransform="translate(0.996061,0.327371),scale(0.565706,1.000000),translate(-0.996061,-0.327371)" id="radialGradient-6">
            <stop stop-color="#263765" offset="0%"></stop>
            <stop stop-color="#1F2A4C" offset="100%"></stop>
        </radialGradient>
        <path d="M36.4294023,20.30448 C28.1837816,24.92784 14.8152299,24.92736 6.57010345,20.304 C-1.67551724,15.68064 -1.67551724,8.18544 6.5696092,3.56208 C14.8147356,-1.06128 28.1832874,-1.0608 36.428908,3.56256 C44.6740345,8.18592 44.6740345,15.68112 36.4294023,20.30448" id="path-7"></path>
        <linearGradient x1="0.000438928332%" y1="50%" x2="100.00079%" y2="50%" id="linearGradient-9">
            <stop stop-color="#DA3685" offset="0%"></stop>
            <stop stop-color="#BC187A" offset="100%"></stop>
        </linearGradient>
    </defs>
    <g id="Page-1" stroke="none" stroke-width="1" fill="none" fill-rule="evenodd" opacity="0.668271019">
        <g id="836-copy" transform="translate(-31.000000, -16.000000)">
            <g id="836" transform="translate(31.000000, 16.000000)">
                <path d="M211.270411,33 L211.270411,32.9995209 L210.778888,32.7207068 L210.730077,32.6934002 L196.540334,24.6528208 L196.040025,24.369216 L196,24.3467001 L210.729101,16 L226,24.6532999 L211.270411,33 M210.729101,16.6127205 L196.540334,24.6528208 L210.730077,32.6934002 L224.918844,24.6532999 L210.729101,16.6127205" id="Fill-3" fill="#D1E9F2"></path>
                <path d="M181.270171,33 L188.364914,28.9800761 L181.270659,33 M180.188998,33 L173.094743,28.9800761 L180.189486,33 L180.188998,33 M180.729829,32.6938706 L175.145312,29.5290968 L180.729829,32.6938706 L187.824572,28.6734677 L180.729829,32.6938706 M196,24.6530647 L195.594377,24.4235874 L195.499683,24.3694519 L196,24.6530647 M194.918827,24.6530647 L180.729829,16.6127378 L166.540831,24.6530647 L166,24.3469353 L180.729829,16 L195.459657,24.3469353 L194.918827,24.6530647" id="Fill-4" fill="#D1E9F2"></path>
                <path d="M196.270411,41 L203.365039,36.979597 L196.270411,41 M195.730077,40.6938706 L195.730077,40.6933916 L181.540334,32.6530647 L181.039537,32.3694519 L181,32.3469353 L195.188767,24.3061294 L195.729589,24 L195.769614,24.0225166 L195.864306,24.0766521 L196.269923,24.3061294 L210.459178,32.3469353 L209.918844,32.6530647 L195.729589,24.6127378 L181.540334,32.6530647 L195.730077,40.6933916 L204.334418,35.8178385 L195.730077,40.6938706 M211,32.6530647 L210.594384,32.4235874 L210.508477,32.3742426 L211,32.6530647" id="Fill-5" fill="#D1E9F2"></path>
                <path d="M211.270411,50 L210.796948,49.7317176 L210.729589,49.6933916 L196.540334,41.6530647 L196.048811,41.3742426 L196,41.3469353 L210.188767,33.3061294 L210.729589,33 L210.7784,33.0273073 L210.864306,33.0766521 L211.269923,33.3061294 L211.269923,33.3066084 L226,41.6530647 L211.270411,50 M196.540334,41.6530647 L210.729589,49.6933916 L224.918844,41.6530647 L210.729589,33.6127378 L196.540334,41.6530647" id="Fill-6" fill="#D1E9F2"></path>
                <path d="M151.550751,33 L156.020877,30.5126391 L151.550751,33 M151,32.6938706 L136.550254,24.6535438 L136.550254,24.6530647 L136.068098,24.3847823 L136,24.3469353 L151,16 L166,24.3474144 L165.449746,24.6535438 L151,16.6127378 L136.550254,24.6530647 L151.000497,32.6938706 L160.231534,27.5572214 L151.000497,32.6938706" id="Fill-7" fill="#D1E9F2"></path>
                <path d="M166.27042,41 L172.640417,37.3905422 L166.27042,41 M165.189229,41 L158.09437,36.9794837 L165.189229,41 M165.72958,40.693862 L157.752685,36.1731766 L165.72958,40.6933829 L174.817442,35.5441326 L165.730068,40.693862 L165.72958,40.6933829 M181,32.6533085 L180.59437,32.4238248 L180.499186,32.3696877 L181,32.6533085 M179.919297,32.6533085 L165.72958,24.612755 L151.540351,32.6528294 L151,32.3466915 L165.72958,24 L166.27042,24.306138 L180.459649,32.3471706 L179.918809,32.6533085" id="Fill-8" fill="#D1E9F2"></path>
                <path d="M181.270899,50 L188.365039,45.979597 L181.270899,50 M180.189255,50 L170.669715,44.6051289 L180.189743,50 L180.189255,50 M180.730077,49.6933916 L174.54528,46.188474 L180.730077,49.6933916 L188.632033,45.2154713 L180.730077,49.6933916 M196,41.6530647 L195.594384,41.4235874 L195.508477,41.3742426 L196,41.6530647 M194.918844,41.6530647 L180.729589,33.6127378 L166.540822,41.6525856 L166,41.3459772 L180.188767,33.3061294 L180.729589,33 L180.769126,33.0225166 L180.864306,33.0766521 L181.269923,33.3061294 L195.459666,41.3469353 L194.918844,41.6530647" id="Fill-9" fill="#D1E9F2"></path>
                <path d="M196.270411,58 L201.102177,55.2621597 L196.270411,58 M195.730077,57.6934002 L181.540334,49.6532999 L181.540822,49.6532999 L181.057597,49.3792763 L181,49.3467001 L195.188767,41.3065998 L195.729589,41 L195.729589,41.0004791 L195.7784,41.0277856 L195.864306,41.077129 L196.269923,41.3065998 L210.459178,49.3467001 L209.918844,49.6532999 L195.729589,41.6131996 L181.540822,49.6532999 L195.730077,57.6934002 L201.942208,54.1732514 L195.730077,57.6934002 M211,49.6532999 L210.594384,49.4233501 L210.526537,49.3850251 L211,49.6532999" id="Fill-10" fill="#D1E9F2"></path>
                <path d="M211.270411,67 L210.815008,66.7417855 L210.730077,66.6934002 L196.066871,58.3850251 L196,58.3467001 L210.188767,50.3065998 L210.729101,50 L210.79646,50.038325 L210.864306,50.0766499 L211.269923,50.3065998 L226,58.6532999 L211.270411,67 M196.540334,58.6532999 L210.730077,66.6934002 L224.918844,58.6532999 L210.729101,50.6131996 L196.540334,58.6532999" id="Fill-11" fill="#D1E9F2"></path>
                <path d="M122.270171,33 L129.364914,28.9800761 L122.270659,33 M121.729829,32.6938706 L107.539855,24.6535438 L107.540343,24.6530647 L107.057109,24.3795125 L107,24.3469353 L121.729341,16 L121.86406,16.0766521 L136.459657,24.3469353 L135.918827,24.6530647 L121.729341,16.6127378 L107.540343,24.6530647 L121.729829,32.6938706 L129.707083,28.1733127 L121.729829,32.6938706 M137,24.6535438 L136.594377,24.4235874 L136.526529,24.3847823 L137,24.6530647" id="Fill-12" fill="#D1E9F2"></path>
                <path d="M137.550751,41 L144.775624,36.979597 L137.550751,41 M137.000497,40.6938706 L137.000497,40.6933916 L122.068098,32.3847823 L122,32.3469353 L136.449249,24.3061294 L137,24 L137.068098,24.037847 L137.137191,24.0766521 L137.550254,24.3066084 L152,32.3469353 L151.449746,32.6530647 L137,24.6127378 L122.550254,32.6530647 L137.000497,40.6933916 L145.123571,36.1733127 L137.000497,40.6938706" id="Fill-13" fill="#D1E9F2"></path>
                <path d="M151.551008,50 L160.579888,44.9754544 L151.551008,50 M151.000249,49.6933916 L136.550263,41.6530647 L136.086491,41.3948429 L136,41.3469353 L150.449489,33.3061294 L151.000249,33 L166,41.3469353 L165.449737,41.6530647 L151.000249,33.6127378 L136.550263,41.6530647 L151.000746,49.6933916 L155.724952,47.0642243 L151.000746,49.6933916" id="Fill-14" fill="#D1E9F2"></path>
                <path d="M166.270171,58 L173.364426,53.9801894 L166.270171,58 M165.18851,58 L158.094255,53.9797103 L165.188998,58 L165.18851,58 M165.729341,57.6934002 L160.144824,54.5291946 L165.729341,57.6934002 L170.853566,54.7898044 L165.729341,57.6934002 M180.999512,49.653779 L180.593889,49.4238291 L180.516767,49.3797554 L181,49.653779 M179.918827,49.653779 L165.728852,41.6131996 L151.540343,49.6532999 L151,49.3467001 L165.18851,41.3065998 L165.728852,41 L166.269683,41.3065998 L180.459169,49.3471792 L179.918338,49.653779" id="Fill-15" fill="#D1E9F2"></path>
                <path d="M181.270411,67 L188.365039,62.9797103 L181.270899,67 M180.189255,67 L175.519541,64.3536606 L180.189743,67 L180.189255,67 M180.730077,66.6934002 L171.210537,61.2986812 L180.730077,66.6934002 L187.824705,62.6731105 L180.730077,66.6934002 M196,58.6532999 L195.594384,58.4233501 L195.526537,58.3850251 L196,58.6532999 M194.918844,58.6532999 L180.729589,50.6131996 L166.540822,58.6528208 L166,58.346221 L180.188767,50.3065998 L180.729589,50 L180.787186,50.0325762 L180.864306,50.0766499 L181.269923,50.3065998 L195.459666,58.3467001 L194.918844,58.6532999" id="Fill-16" fill="#D1E9F2"></path>
                <path d="M196.270411,75 L203.365039,70.9797103 L196.270411,75 M195.730077,74.6934002 L181.540334,66.6532999 L181.073216,66.3883785 L181,66.3467001 L195.188767,58.3065998 L195.729589,58 L195.79646,58.038325 L195.864306,58.0766499 L196.269923,58.3065998 L210.459178,66.3467001 L209.918844,66.6532999 L195.729589,58.6127205 L181.540334,66.6532999 L195.730077,74.6934002 L203.706713,70.1729696 L195.730077,74.6934002 M211,66.6532999 L210.594384,66.4233501 L210.544597,66.3950854 L211,66.6532999" id="Fill-17" fill="#D1E9F2"></path>
                <path d="M211.270411,83 L211.270411,82.9995209 L210.7784,82.7211858 L210.729589,82.6934002 L196.540334,74.6532999 L196.083954,74.3946063 L196,74.3467001 L210.188767,66.3065998 L210.729589,66 L210.81452,66.0483853 L210.864306,66.0766499 L211.269923,66.3065998 L226,74.6532999 L211.270411,83 M196.540334,74.6532999 L210.729589,82.6934002 L224.918844,74.6532999 L210.729589,66.6127205 L196.540334,74.6532999" id="Fill-18" fill="#D1E9F2"></path>
                <path d="M92.270411,33 L101.357489,27.8508947 L92.270411,33 M91.729589,32.6938706 L77.5403339,24.6530647 L77.0697992,24.3866986 L77,24.3469353 L91.729589,16 L106.459178,24.3474144 L105.918844,24.6535438 L91.729589,16.6127378 L77.5403339,24.6530647 L91.7300771,32.6938706 L96.1196186,30.2065098 L91.7300771,32.6938706 M106.999512,24.6540228 L106.594384,24.4240665 L106.516775,24.3799915 L107,24.6535438" id="Fill-19" fill="#D1E9F2"></path>
                <path d="M107.270659,41 L116.357885,35.8507496 L107.270659,41 M106.729829,40.693862 L92.5403427,32.6528294 L92.0488114,32.3744786 L92,32.3466915 L106.729341,24 L106.729829,24 L106.786938,24.0325781 L106.864548,24.0766543 L107.269683,24.3066171 L121.459657,32.3471706 L120.918827,32.6533085 L106.729341,24.612755 L92.5403427,32.6528294 L106.729829,40.693862 L111.11993,38.205952 L106.730317,40.693862 L106.729829,40.693862 M122,32.6533085 L121.594377,32.4238248 L121.526529,32.3850186 L122,32.6533085" id="Fill-20" fill="#D1E9F2"></path>
                <path d="M122.270899,50 L131.6279,44.6975905 L122.270899,50 M121.189255,50 L114.094628,45.979597 L121.189743,50 L121.189255,50 M121.730077,49.6933916 L114.63545,45.6729886 L121.730077,49.6933916 L125.810159,47.3813724 L121.730077,49.6933916 M137,41.6530647 L136.594384,41.4235874 L136.544597,41.3948429 L137,41.6530647 M135.918844,41.6530647 L121.729589,33.6127378 L107.540822,41.6525856 L107,41.3464562 L121.188767,33.3061294 L121.729589,33 L121.79646,33.037847 L121.864306,33.0766521 L122.269923,33.3061294 L136.459178,41.3469353 L135.918844,41.6530647" id="Fill-21" fill="#D1E9F2"></path>
                <path d="M137.551248,58 L137.550751,58 L143.876926,54.4798512 L137.551248,58 M137.000497,57.6934002 L122.550254,49.6532999 L122.550751,49.6532999 L122.037777,49.3677788 L122,49.3467001 L136.449249,41.3065998 L137,41 L137,41.0004791 L137.08649,41.0483853 L137.137191,41.077129 L137.550254,41.3065998 L152,49.3467001 L151.449746,49.6532999 L137,41.6131996 L122.550751,49.6532999 L137.000497,57.6934002 L144.224873,53.6735896 L137.000497,57.6934002" id="Fill-22" fill="#D1E9F2"></path>
                <path d="M151.550511,67 L159.674217,62.4795694 L151.550511,67 M150.449489,67 L143.224496,62.9797103 L150.449489,67 M150.999751,66.6934002 L142.237304,61.8175055 L151.000249,66.6934002 L158.224744,62.6731105 L151.000249,66.6934002 M136.550263,58.6532999 L136,58.3467001 L150.449489,50.3065998 L151.000249,50 L151.550511,50.3065998 L166,58.3467001 L165.449737,58.6532999 L151.000249,50.6131996 L136.550263,58.6532999" id="Fill-23" fill="#D1E9F2"></path>
                <path d="M166.270659,74.9995209 L176.070044,69.4471904 L166.270659,75 M165.729829,74.6934002 L151.540343,66.6532999 L151.060526,66.3811926 L151,66.3467001 L165.18851,58.3065998 L165.188998,58.3065998 L165.729341,58 L166.270171,58.3065998 L180.459657,66.3471792 L179.918827,66.653779 L165.729341,58.6127205 L151.540343,66.6532999 L165.729829,74.6934002 L172.824572,70.6735896 L165.730317,74.6934002 L165.729829,74.6934002 M181,66.653779 L180.594377,66.4238291 L180.532875,66.3888576 L181,66.653779" id="Fill-24" fill="#D1E9F2"></path>
                <path d="M181.270659,83 L188.364914,78.9799628 L181.270659,83 M180.729829,82.693862 L166.539855,74.6533085 L166.540343,74.6528294 L166.082979,74.3936422 L166,74.3466915 L180.18851,66.3066171 L180.729341,66 L180.802558,66.0416808 L180.86406,66.0766543 L181.269683,66.3066171 L195.459169,74.3471706 L194.918827,74.6533085 L180.729341,66.612755 L166.540343,74.6528294 L180.729829,82.693862 L187.026993,79.1256059 L180.729829,82.693862 M196,74.6537876 L195.543613,74.3950795 L196,74.6537876" id="Fill-25" fill="#D1E9F2"></path>
                <path d="M196.270411,92 L203.365039,87.9800761 L196.270411,92 M195.189255,92 L185.669715,86.605608 L195.189255,92 M195.730077,91.6938706 L191.060363,89.0474567 L195.730077,91.6938706 L201.314503,88.5290968 L195.730077,91.6938706 M211,83.6530647 L210.507989,83.3747217 L211,83.6530647 M209.918844,83.6530647 L195.729589,75.6127378 L181.540334,83.6525856 L181,83.3464562 L195.188767,75.3061294 L195.729589,75 L195.813543,75.0479076 L196.269923,75.3066084 L210.459178,83.3469353 L209.918844,83.6530647" id="Fill-26" fill="#D1E9F2"></path>
                <path d="M211.270411,100 L210.7784,99.721178 L210.729589,99.6933916 L196.035632,91.3670565 L196,91.3469353 L210.729101,83 L210.777912,83.0277864 L211.269923,83.3061294 L211.269923,83.3066084 L226,91.6530647 L211.270411,100 M196.540334,91.6530647 L210.729589,99.6933916 L224.918844,91.6530647 L210.729101,83.6127378 L196.540334,91.6530647" id="Fill-27" fill="#D1E9F2"></path>
                <path d="M63.0492097,33 L69.3543448,29.479752 L63.0492097,33 M61.9512858,33 L47,24.6525856 L62.4997523,16 L62.6364973,16.0766521 L77.4515335,24.3469353 L76.9025716,24.6530647 L62.4997523,16.6127378 L48.0974284,24.6525856 L62.5002477,32.6938706 L69.7016574,28.6734677 L62.5002477,32.6938706 L61.9512858,33 M78,24.6530647 L77.5882785,24.4235874 L77.5223833,24.3866986 L78,24.6530647" id="Fill-28" fill="#D1E9F2"></path>
                <path d="M78.270411,41 L85.3650386,36.9800761 L78.2708991,41 M77.7300771,40.6938706 L63.1347174,32.4235874 L63,32.3469353 L77.188767,24.3061294 L77.729589,24 L77.7993882,24.0397633 L77.8643064,24.0766521 L78.2699229,24.3061294 L92.459178,32.3469353 L91.9188442,32.6530647 L77.729589,24.6127378 L63.540822,32.6530647 L77.7300771,40.6938706 L84.8242166,36.6734677 L77.7300771,40.6938706 M93,32.6530647 L92.5943835,32.4235874 L92.5084768,32.3747217 L93,32.6530647" id="Fill-29" fill="#D1E9F2"></path>
                <path d="M92.5507506,50 L99.7756238,45.979597 L92.5507506,50 M92,49.6933916 L77.5502535,41.6530647 L77.0497067,41.3742426 L77,41.3469353 L91.4492494,33.3061294 L92,33 L92.1371906,33.0766521 L92.5502535,33.3061294 L107,41.3469353 L106.449746,41.6530647 L92,33.6127378 L77.5502535,41.6530647 L92.0004971,49.6933916 L101.49995,44.4077498 L92.0004971,49.6933916" id="Fill-30" fill="#D1E9F2"></path>
                <path d="M107.270411,58 L112.394553,55.0963224 L107.270411,58 M106.730077,57.6933916 L106.729589,57.6933916 L92.0668706,49.3847823 L92,49.3464562 L106.729101,41 L107.269923,41.3061294 L121.459178,49.3469353 L120.918356,49.6535438 L106.729101,41.6127378 L92.5403339,49.6530647 L106.729589,57.6933916 L116.528815,52.1409046 L106.730077,57.6933916 M121.999512,49.6535438 L121.593895,49.4235874 L121.496274,49.3680147 L122,49.6535438" id="Fill-31" fill="#D1E9F2"></path>
                <path d="M122.550751,67 L127.768963,64.0963224 L122.550751,67 M122,66.6933916 L107.549756,58.6530647 L107.550254,58.6530647 L107.068098,58.3847823 L107,58.3464562 L121.448752,50.3066084 L121.999503,50 L122.03728,50.0210793 L122.136694,50.0766521 L122.549756,50.3066084 L137,58.3469353 L136.449249,58.6535438 L121.999503,50.6132169 L107.550254,58.6530647 L122,66.6933916 L131.979123,61.1409046 L122,66.6933916" id="Fill-32" fill="#D1E9F2"></path>
                <path d="M137.270171,74.9995209 L143.482403,71.4798512 L137.270171,75 M136.188998,74.9995209 L128.162444,70.4513047 L136.188998,74.9995209 M136.729829,74.6934002 L129.635086,70.6731105 L136.729829,74.6934002 L146.058183,69.4074283 L136.729829,74.6934002 M152,66.6532999 L151.594377,66.4233501 L151.520184,66.3811926 L152,66.6532999 M150.918827,66.6532999 L136.729829,58.6127205 L122.540343,66.6528208 L122,66.346221 L136.188998,58.3065998 L136.729829,58 L137.270171,58.3065998 L137.270659,58.3065998 L151.459169,66.3467001 L150.918827,66.6532999" id="Fill-33" fill="#D1E9F2"></path>
                <path d="M152.270411,83 L156.350493,80.6879808 L152.270411,83 M151.729589,82.6938706 L137.540334,74.6535438 L137.540334,74.6530647 L137.05418,74.3775962 L137,74.3469353 L151.188767,66.3066084 L151.729589,66 L151.790114,66.0344934 L151.864306,66.0766521 L152.269923,66.3066084 L166.459178,74.3469353 L165.918844,74.6530647 L151.729589,66.6127378 L137.540334,74.6530647 L151.730077,82.6938706 L158.824217,78.6734677 L151.730077,82.6938706 M166.999512,74.6535438 L166.594384,74.4235874 L166.542644,74.3938847 L167,74.6530647" id="Fill-34" fill="#D1E9F2"></path>
                <path d="M166.550751,92 L173.775127,87.9800761 L166.550751,92 M166,91.6938706 L151.550254,83.6535438 L151.550254,83.6530647 L151.068098,83.3847823 L151,83.3469353 L165.999503,75 L166,75 L166.084501,75.0469494 L166.137191,75.0766521 L166.549756,75.3066084 L181,83.3469353 L180.449249,83.6530647 L165.999503,75.6127378 L151.550254,83.6530647 L166,91.6938706 L173.224873,87.6734677 L166,91.6938706" id="Fill-35" fill="#D1E9F2"></path>
                <path d="M181.270411,100 L186.395041,97.0963224 L181.270899,100 M180.730077,99.6938706 L166.540822,91.6530647 L166.085419,91.395322 L166,91.3469353 L180.188767,83.3061294 L180.729589,83 L181.270411,83.3061294 L195.459666,91.3474144 L194.918844,91.6535438 L180.729589,83.6127378 L166.540822,91.6530647 L180.730077,99.6933916 L189.794702,94.5572214 L180.730077,99.6938706 L180.730077,99.6933916 M196,91.6535438 L195.594384,91.4240665 L195.495298,91.3675356 L196,91.6535438" id="Fill-36" fill="#D1E9F2"></path>
                <path d="M196.270899,108 L196.270411,108 L203.365039,103.979963 L196.270899,108 M195.730077,107.693383 L181.540334,99.6528294 L181.083954,99.3941213 L181,99.3466915 L195.188767,91.306138 L195.729589,91 L195.765221,91.0201217 L195.864306,91.0766543 L196.269923,91.306138 L210.459178,99.3471706 L209.918844,99.6533085 L195.729589,91.612755 L181.540334,99.6528294 L195.730077,107.693383 L204.101103,102.949921 L195.730077,107.693383 M211,99.6533085 L210.594384,99.4238248 L210.507989,99.3744786 L211,99.6533085" id="Fill-37" fill="#D1E9F2"></path>
                <path d="M211.270411,117 L210.802805,116.735079 L210.729589,116.6934 L201.210048,111.29916 L210.729589,116.6934 L224.918844,108.6533 L210.729101,100.6132 L196.540334,108.652821 L196,108.346221 L210.188767,100.3066 L210.729101,100 L210.777912,100.027786 L210.864306,100.077129 L211.269923,100.3066 L226,108.6533 L211.270411,117 M210.189255,117 L204.850835,113.974722 L210.189255,117" id="Fill-38" fill="#D1E9F2"></path>
                <path d="M63.0487142,50 L71.1459029,45.4799211 L63.0492097,50 M61.9512858,50 L47,41.6525856 L61.9507903,33.3061294 L62.4997523,33 L62.6364973,33.0766521 L77.4515335,41.3469353 L76.9025716,41.6530647 L62.4997523,33.6127378 L48.0974284,41.6525856 L62.5002477,49.6933916 L71.9985776,44.3909821 L62.5002477,49.6933916 L61.9512858,50 M78,41.6530647 L77.5882785,41.4235874 L77.5010788,41.3742426 L78,41.6530647" id="Fill-39" fill="#D1E9F2"></path>
                <path d="M78.270411,58 L84.5572223,54.4375933 L78.270411,58 M77.729589,57.6933916 L63.1347174,49.4235874 L63,49.3464562 L77.188767,41.3061294 L77.729589,41 L77.7783997,41.0273073 L77.8643064,41.0766521 L78.2699229,41.3061294 L92.459178,49.3464562 L91.9188442,49.6530647 L77.729589,41.6127378 L63.5403339,49.6530647 L77.7300771,57.6933916 L84.8242166,53.6734677 L77.7300771,57.6933916 M93,49.6530647 L92.5943835,49.4235874 L92.5265367,49.3847823 L93,49.6530647" id="Fill-40" fill="#D1E9F2"></path>
                <path d="M92.270411,67 L99.3650386,62.9797103 L92.270411,67 M91.729589,66.6934002 L77.5403339,58.6532999 L77.0834662,58.3941273 L77,58.3467001 L91.188767,50.3065998 L91.729589,50 L91.7964596,50.038325 L91.8643064,50.077129 L92.2699229,50.3065998 L106.459178,58.3467001 L105.918844,58.6532999 L91.729589,50.6131996 L77.5403339,58.6532999 L91.7300771,66.6934002 L97.9417201,63.1732514 L91.7300771,66.6934002 M106.999512,58.6532999 L106.594384,58.4233501 L106.526537,58.3850251 L107,58.6532999" id="Fill-41" fill="#D1E9F2"></path>
                <path d="M107.550751,75 L107.550751,74.9995209 L114.775127,70.9797103 L107.550751,75 M107,74.6934002 L92.5502535,66.6532999 L92.0864897,66.3950854 L92,66.3467001 L106.449249,58.3065998 L106.999503,58 L107,58 L107.068098,58.038325 L107.137191,58.0766499 L107.549756,58.3065998 L122,66.3467001 L121.449249,66.6532999 L106.999503,58.6127205 L92.5502535,66.6532999 L107,74.6934002 L113.326176,71.1732514 L107.000497,74.6934002 L107,74.6934002" id="Fill-42" fill="#D1E9F2"></path>
                <path d="M122.270659,83 L129.364914,78.9800761 L122.270659,83 M121.188998,83 L111.080637,77.2716923 L121.189486,83 L121.188998,83 M121.729829,82.6938706 L116.897984,79.9559532 L121.729829,82.6938706 L128.099722,79.0845146 L121.729829,82.6938706 M137,74.6540228 L136.594377,74.4240665 L136.513838,74.3780752 L137,74.6535438 M135.918827,74.6535438 L121.729829,66.6127378 L107.540831,74.6535438 L107,74.3469353 L121.188998,66.3066084 L121.729829,66 L122.270659,66.3066084 L136.459657,74.3474144 L135.918827,74.6535438" id="Fill-43" fill="#D1E9F2"></path>
                <path d="M137.270411,92 L145.87524,87.1239679 L137.270411,92 M136.189255,92 L132.289284,89.790024 L136.189255,92 M136.730077,91.6938706 L126.440793,85.8630407 L136.730077,91.6938706 L143.824217,87.6734677 L136.730077,91.6938706 M152,83.6535438 L151.594384,83.4235874 L151.526537,83.3847823 L152,83.6530647 M150.918844,83.6530647 L136.729589,75.6127378 L122.540334,83.6525856 L122,83.3464562 L136.188767,75.3061294 L136.729589,75 L136.783769,75.0306608 L136.864306,75.0766521 L137.269923,75.3066084 L151.459178,83.3469353 L150.918844,83.6530647" id="Fill-44" fill="#D1E9F2"></path>
                <path d="M152.270411,100 L160.874752,95.1239679 L152.270411,100 M151.729589,99.6938706 L137.540334,91.6530647 L137.081514,91.3929266 L137,91.3469353 L151.188767,83.3061294 L151.729589,83 L151.79646,83.037847 L151.864306,83.0766521 L152.269923,83.3066084 L166.459178,91.3469353 L165.918844,91.6530647 L151.729589,83.6127378 L137.540334,91.6530647 L151.730077,99.6933916 L158.824217,95.6734677 L151.730077,99.6938706 L151.730077,99.6933916 M167,91.6530647 L166.594384,91.4235874 L166.544597,91.395322 L167,91.6530647" id="Fill-45" fill="#D1E9F2"></path>
                <path d="M166.270659,108 L176.379509,102.271692 L166.270659,108 M165.729829,107.693392 L151.104945,99.4063407 L151,99.3469353 L165.188998,91.3061294 L165.729341,91 L165.814761,91.0483866 L165.864548,91.0766521 L166.270171,91.3061294 L180.459657,99.3469353 L179.918827,99.6530647 L165.729341,91.6127378 L151.540343,99.6530647 L165.729829,107.693392 L170.561673,104.955474 L165.729829,107.693392 M181,99.6530647 L180.594377,99.4235874 L180.543613,99.3943638 L181,99.6530647" id="Fill-46" fill="#D1E9F2"></path>
                <path d="M181.550751,117 L188.775624,112.97971 L181.551248,117 M181.000497,116.6934 L166.550254,108.6533 L166.550751,108.6533 L166,108.3467 L180.449249,100.3066 L181,100 L181,100.000479 L181.085496,100.047906 L181.137191,100.077129 L181.550254,100.3066 L196,108.3467 L195.449746,108.6533 L181,100.6132 L166.550751,108.6533 L181.000497,116.6934 L186.687444,113.529195 L181.000497,116.6934" id="Fill-47" fill="#D1E9F2"></path>
                <path d="M196.270411,125 L205.357977,119.850561 L196.270411,125 M195.730077,124.6934 L181.540334,116.6533 L181.048811,116.374486 L181,116.3467 L195.188767,108.3066 L195.729589,108 L196.269923,108.3066 L196.270411,108.3066 L210.459178,116.347179 L209.918844,116.653779 L195.729589,108.6132 L181.540334,116.6533 L195.730077,124.6934 L200.119619,122.206109 L195.730077,124.6934 M211,116.653779 L210.594384,116.423829 L210.532394,116.388858 L211,116.653779" id="Fill-48" fill="#D1E9F2"></path>
                <path d="M210.729589,133 L196,124.800471 L196.540334,124.499765 L196,124.198588 L210.188767,116.301176 L210.729101,116 L210.802317,116.040941 L210.864306,116.075294 L211.269923,116.301176 L226,124.500235 L210.729589,133 M196.540334,124.499765 L210.729589,132.398118 L224.918844,124.500235 L210.729101,116.601882 L196.540334,124.499765" id="Fill-49" fill="#D1E9F2"></path>
                <path d="M63.0492097,67 L70.9858716,62.5690292 L63.0492097,67 M61.9517812,66.9995209 L47,58.6530647 L61.9507903,50.3066084 L62.4997523,50 L62.6364973,50.0771312 L77.4510381,58.3469353 L76.9025716,58.6535438 L62.4997523,50.6132169 L48.0974284,58.6530647 L62.5002477,66.6933916 L67.7015135,63.789714 L61.9517812,66.9995209 M78,58.6535438 L77.5882785,58.4235874 L77.536256,58.3943638 L78,58.6535438" id="Fill-50" fill="#D1E9F2"></path>
                <path d="M78.270411,75 L85.3650386,70.9797103 L78.270411,75 M77.1892551,74.9995209 L72.5195405,72.3536606 L77.1892551,75 L77.1892551,74.9995209 M77.7300771,74.6934002 L68.2105366,69.2986812 L77.7300771,74.6934002 L84.8242166,70.6731105 L77.7300771,74.6934002 M93,66.6532999 L92.5943835,66.4233501 L92.5445967,66.3950854 L93,66.6532999 M91.9188442,66.6532999 L77.729589,58.6127205 L63.5403339,66.6528208 L63,66.346221 L77.188767,58.3065998 L77.729589,58 L77.8130552,58.0474272 L77.8643064,58.0766499 L78.2699229,58.3065998 L92.459178,66.3467001 L91.9188442,66.6532999" id="Fill-51" fill="#D1E9F2"></path>
                <path d="M92.5507506,83 L102.050204,77.7143582 L92.5507506,83 M92,82.6938706 L77.5502535,74.6535438 L77.0745601,74.3886149 L77,74.3469353 L91.4492494,66.3066084 L92,66 L92.0864897,66.0483866 L92.1371906,66.0766521 L92.5502535,66.3066084 L107,74.3469353 L106.449746,74.6530647 L92,66.6127378 L77.5502535,74.6535438 L92,82.6938706 L96.9502933,79.9391856 L92.0004971,82.6938706 L92,82.6938706" id="Fill-52" fill="#D1E9F2"></path>
                <path d="M107.551008,92 L114.775504,87.9800761 L107.551008,92 M107.000249,91.6938706 L92.5502626,83.6530647 L92.0492105,83.3747217 L92,83.3469353 L106.449489,75.3061294 L106.999751,75 L107.550511,75.3061294 L107.550511,75.3066084 L122,83.3469353 L121.44924,83.6530647 L106.999751,75.6127378 L92.5502626,83.6530647 L107.000249,91.6938706 L114.224744,87.6734677 L107.000249,91.6938706" id="Fill-53" fill="#D1E9F2"></path>
                <path d="M122.270171,100 L130.089764,95.5695082 L122.270659,100 M121.188998,100 L114.977254,96.479752 L121.189486,100 L121.188998,100 M121.729829,99.6938706 L121.729829,99.6933916 L114.635086,95.6734677 L121.729829,99.6933916 L126.854054,96.790193 L121.729829,99.6938706 M137,91.6535438 L136.594377,91.4240665 L136.541172,91.3934057 L137,91.6535438 M135.918827,91.6535438 L121.729341,83.6127378 L107.540831,91.6530647 L107,91.3469353 L121.18851,83.3061294 L121.729341,83 L122.270171,83.3061294 L136.459657,91.3474144 L135.918827,91.6535438" id="Fill-54" fill="#D1E9F2"></path>
                <path d="M137.270899,108 L137.270411,108 L143.088152,104.703387 L137.270899,108 M136.729589,107.693383 L122.540334,99.6528294 L122.040025,99.3692087 L122,99.3466915 L136.188767,91.306138 L136.729589,91 L136.811103,91.0459926 L136.864306,91.0766543 L137.269923,91.306138 L151.459178,99.3471706 L150.918844,99.6533085 L136.729589,91.612755 L122.540334,99.6528294 L136.730077,107.693383 L143.824217,103.673346 L136.730077,107.693383 M152,99.6533085 L151.594384,99.4238248 L151.564609,99.4065776 L152,99.6533085" id="Fill-55" fill="#D1E9F2"></path>
                <path d="M152.270411,117 L158.482542,113.479851 L152.270411,117 M151.189255,117 L141.669715,111.605281 L151.189255,117 M151.730077,116.6934 L151.729589,116.6934 L147.059874,114.047061 L151.729589,116.6934 L158.824217,112.673111 L151.730077,116.6934 M166.999512,108.6533 L166.594384,108.42335 L166.528489,108.385983 L167,108.6533 M165.918844,108.6533 L151.729589,100.6132 L137.540334,108.652821 L137,108.346221 L151.188767,100.3066 L151.729589,100 L151.729589,100.000479 L151.834532,100.059883 L151.864306,100.077129 L152.269923,100.3066 L166.459178,108.3467 L165.918844,108.6533" id="Fill-56" fill="#D1E9F2"></path>
                <path d="M166.270659,125 L173.364914,120.97971 L166.270659,125 M165.729829,124.6934 L151.035632,116.3673 L151,116.3467 L165.188998,108.3066 L165.729341,108 L165.864548,108.07665 L166.269683,108.3066 L180.459657,116.3467 L179.918827,116.6533 L165.729341,108.6132 L151.540343,116.6533 L165.729829,124.6934 L172.824572,120.673111 L165.729829,124.6934 M181,116.6533 L180.594377,116.42335 L180.508469,116.374486 L181,116.6533" id="Fill-57" fill="#D1E9F2"></path>
                <path d="M180.730077,133 L180.59536,132.924706 L166,124.800941 L166.540822,124.500235 L166,124.199059 L180.188767,116.301176 L180.729589,116 L180.7784,116.027294 L180.864306,116.075294 L181.269923,116.301176 L195.459666,124.199059 L196,124.500235 L195.459666,124.800941 L195.459178,124.800941 L180.730077,133 M166.540822,124.500235 L180.730077,132.398118 L194.918844,124.500235 L180.729589,116.601882 L166.540822,124.500235" id="Fill-58" fill="#D1E9F2"></path>
                <path d="M63.0487142,82.9995209 L71.546229,78.2563264 L63.0492097,83 M61.9517812,82.9995209 L47,74.6532999 L62.4997523,66 L63.0487142,66.3065998 L77.4515335,74.3471792 L76.9025716,74.6532999 L62.4997523,66.6127205 L48.0974284,74.6532999 L62.5002477,82.6934002 L69.7016574,78.6735896 L61.9517812,82.9995209 M78,74.653779 L77.5882785,74.4238291 L77.5258515,74.3888576 L78,74.653779" id="Fill-59" fill="#D1E9F2"></path>
                <path d="M78.2708991,92 L78.270411,92 L84.6402004,88.3905422 L78.2708991,92 M77.729589,91.693862 L63.1347174,83.4233457 L63,83.3466915 L77.188767,75.306138 L77.729589,75 L77.802805,75.0416808 L77.8643064,75.0766543 L78.2699229,75.3066171 L92.459178,83.3471706 L91.9188442,83.6533085 L77.729589,75.612755 L63.5403339,83.6528294 L77.7300771,91.693862 L86.8171553,86.5441326 L77.7300771,91.693862 M93,83.6533085 L92.5079887,83.3749577 L93,83.6533085" id="Fill-60" fill="#D1E9F2"></path>
                <path d="M92.5507506,100 L99.7756238,95.979597 L92.5507506,100 M91.4497465,100 L81.7554429,94.605608 L91.4497465,100 M92.0004971,99.6933916 L88.0284322,97.4834155 L92.0004971,99.6933916 L97.686947,96.5290968 L92.0004971,99.6938706 M106.449746,91.6530647 L91.9995029,83.6127378 L77.5502535,91.6525856 L77,91.3464562 L91.9995029,83 L92,83 L92.0492097,83.0277864 L92.5502535,83.3061294 L107,91.3469353 L106.449746,91.6530647" id="Fill-61" fill="#D1E9F2"></path>
                <path d="M107.27042,108 L112.131142,105.245315 L107.27042,108 M106.188741,108 L99.9022128,104.437593 L106.189229,108 L106.188741,108 M106.730068,107.693392 L106.72958,107.693392 L97.3722747,102.390982 L106.72958,107.693392 L116.838594,101.965084 L106.730068,107.693392 M122,99.6530647 L121.59437,99.4235874 L121.499675,99.3694519 L122,99.6530647 M120.919297,99.6530647 L106.72958,91.6127378 L92.5403514,99.6530647 L92,99.3464562 L106.72958,91 L107.27042,91.3061294 L121.459649,99.3469353 L120.918809,99.6530647" id="Fill-62" fill="#D1E9F2"></path>
                <path d="M122.550511,117 L129.775504,112.97971 L122.551008,117 M122.000249,116.6934 L107.549766,108.6533 L107.550263,108.6533 L107.060643,108.381193 L107,108.3467 L121.448992,100.3066 L121.999751,100 L121.999751,100.000479 L122.040512,100.022995 L122.136944,100.077129 L122.550014,100.3066 L137,108.3467 L136.449737,108.6533 L121.999751,100.6132 L107.550263,108.6533 L122.000249,116.6934 L130.123954,112.173449 L122.000249,116.6934" id="Fill-63" fill="#D1E9F2"></path>
                <path d="M137.270411,125 L143.6402,121.390746 L137.270411,125 M136.730077,124.6934 L122.540334,116.6533 L122.084931,116.395085 L122,116.3467 L136.188767,108.3066 L136.729589,108 L137.269923,108.3066 L137.270411,108.3066 L151.459178,116.347179 L150.918844,116.653779 L136.729589,108.612721 L122.540334,116.6533 L136.730077,124.6934 L145.817155,119.54444 L136.730077,124.6934 M152,116.653779 L151.594384,116.423829 L151.495298,116.367779 L152,116.653779" id="Fill-64" fill="#D1E9F2"></path>
                <path d="M151.729589,133 L151.594872,132.924704 L137,124.800714 L137.540334,124.5 L137,124.198815 L151.188767,116.301185 L151.729101,116 L151.729589,116 L151.765221,116.020236 L151.864306,116.075296 L152.269923,116.301185 L166.459178,124.199286 L167,124.500471 L166.459178,124.801185 L151.729589,133 M137.540334,124.5 L151.729589,132.398101 L165.918844,124.500471 L151.729101,116.601899 L137.540334,124.5" id="Fill-65" fill="#D1E9F2"></path>
                <path d="M62.8110021,100 L68.3955191,96.8357052 L62.8114902,100 M61.7303168,100 L47,91.6530647 L62.2701713,83 L62.4048909,83.0766521 L77,91.3469353 L76.4596573,91.6530647 L62.2701713,83.6127378 L48.0811734,91.6530647 L62.2706594,99.6933916 L69.3654025,95.6734677 L62.2706594,99.6938706 L62.2706594,99.6933916 L61.7303168,100" id="Fill-66" fill="#D1E9F2"></path>
                <path d="M77.5512476,108 L77.5507506,108 L84.7756238,103.980076 L77.5512476,108 M77.0004971,107.693392 L62.1371906,99.4235874 L62,99.3469353 L76.4492494,91.3061294 L77,91 L77.5502535,91.3061294 L77.5507506,91.3061294 L92,99.3474144 L91.4497465,99.6535438 L77,91.6127378 L62.5502535,99.6530647 L77.0004971,107.693392 L84.2248732,103.673468 L77.0004971,107.693392" id="Fill-67" fill="#D1E9F2"></path>
                <path d="M92.2701713,117 L99.3649143,112.97971 L92.2701713,117 M91.1889979,117 L86.7412994,114.479654 L91.1889979,117 M91.7298287,116.6934 L81.9880412,111.173167 L91.7298287,116.6934 L97.9415727,113.173251 L91.7298287,116.6934 M106.999512,108.6533 L106.594377,108.42335 L106.519207,108.381193 L107,108.6533 M105.918827,108.6533 L91.7298287,100.6132 L77.5403427,108.652821 L77,108.346221 L91.1889979,100.3066 L91.7298287,100 L92.2701713,100.3066 L106.459169,108.3467 L105.918827,108.6533" id="Fill-68" fill="#D1E9F2"></path>
                <path d="M107.270659,125 L114.364914,120.97971 L107.270659,125 M106.729829,124.6934 L92.5403427,116.6533 L92.0688241,116.385983 L92,116.3467 L106.18851,108.3066 L106.188998,108.3066 L106.729341,108 L106.729829,108 L106.789379,108.034492 L106.864548,108.07665 L107.269683,108.3066 L121.459657,116.3467 L120.918827,116.6533 L106.729341,108.612721 L92.5403427,116.6533 L106.729829,124.6934 L112.942061,121.173251 L106.729829,124.6934 M122,116.6533 L121.594377,116.42335 L121.544589,116.395085 L122,116.6533" id="Fill-69" fill="#D1E9F2"></path>
                <path d="M121.730077,133 L121.59536,132.924706 L107,124.800941 L107.540822,124.500235 L107,124.199059 L121.188767,116.301176 L121.729589,116 L121.81452,116.047529 L121.864306,116.075294 L122.269923,116.301176 L136.459666,124.199059 L137,124.500235 L121.730077,133 M107.540822,124.500235 L121.730077,132.398118 L135.918844,124.500235 L121.729589,116.601882 L107.540822,124.500235" id="Fill-70" fill="#D1E9F2"></path>
                <path d="M62.8107449,117 L70.7878689,112.479569 L62.811233,117 M61.7300771,117 L47,108.6533 L61.729589,100.3066 L62.2699229,100 L62.2699229,100.000479 L62.4046403,100.077129 L77,108.3467 L76.459178,108.6533 L62.2699229,100.6132 L48.0811558,108.6533 L62.270411,116.6934 L69.3650386,112.67359 L62.270411,116.6934 L61.7300771,117" id="Fill-71" fill="#D1E9F2"></path>
                <path d="M83.0419778,122 L88.2403963,118.909725 L83.0419778,122 M67.2944306,118.311072 L63.1347196,115.838047 L63,115.757623 L77.1889979,107.321694 L77.7298287,107 L78.2701713,107.321694 L78.2706594,107.321694 L92.4591692,115.758126 L91.9188266,116.07982 L77.7298287,107.643389 L63.5403427,116.079318 L67.2949187,118.311072 L67.2944306,118.311072 M93,116.07982 L92.5284815,115.799343 L93,116.07982" id="Fill-72" fill="#D1E9F2"></path>
                <path d="M91.9820844,133 L79,125.652032 L79.5318795,125.350847 L91.9820844,132.398101 L105.936721,124.500471 L91.9820844,116.601899 L82.7202764,121.843926 C82.809563,121.603449 82.8825284,121.36109 82.9362924,121.119671 L91.4502049,116.301185 L91.9820844,116 L92.0497694,116.038589 L92.5134839,116.301185 L106.46812,124.199286 L107,124.500471 L106.46812,124.801185 L91.9820844,133" id="Fill-73" fill="#D1E9F2"></path>
                <path d="M58.1531361,131 L47,124.749475 L62.0576319,116.310007 L62.6099995,116 L62.7477172,116.077502 L67,118.460684 C66.8223642,118.561436 66.6462252,118.669455 66.4720822,118.784254 L62.6099995,116.61953 L48.1052343,124.749475 L58.6236715,130.64446 C58.4625019,130.75151 58.3053241,130.870669 58.1531361,131" id="Fill-74" fill="#D1E9F2"></path>
                <path d="M213.491482,73.194172 L172.308645,49.8592862 C170.071624,48.5911015 166.160878,48.7444723 163.573634,50.2014948 L77.1424287,98.8722759 C74.5551843,100.328819 74.2715768,102.538317 76.5081081,103.805543 L117.691435,127.140908 C119.928457,128.408614 123.838712,128.255722 126.426447,126.7987 L212.857652,78.1274392 C215.444896,76.670896 215.728504,74.4618774 213.491482,73.194172" id="Fill-159" fill="#7DBCDB"></path>
                <path d="M168.605852,43.4153951 C167.004689,43.4153951 165.304682,43.7882227 164.008408,44.5109932 L77.2357709,92.9261277 C76.1165301,93.5502085 75.4482312,94.3602264 75.4472477,95.0925321 C75.4462641,95.8176864 76.0737471,96.3221001 76.6009115,96.6181691 L117.945944,119.830735 C119.954774,120.957799 123.637549,120.802375 125.991593,119.489374 L212.764231,71.0742392 C213.883472,70.4506351 214.551771,69.6401405 214.552754,68.9078347 C214.553738,68.1826804 213.926255,67.67779 213.39909,67.3821978 L172.054058,44.1691551 C171.151683,43.6633111 169.911961,43.4153951 168.605852,43.4153951 Z M121.415295,122 C119.855931,122 118.360987,121.684861 117.220601,121.045047 L75.875077,97.8324807 C74.6638774,97.152142 73.9980373,96.1781182 74.0000043,95.0901483 C74.0019714,93.8319746 74.9181162,92.6000228 76.5133787,91.709909 L163.286016,43.2952512 C166.125426,41.7095423 170.295041,41.560316 172.779401,42.9553202 L214.124433,66.1678862 C215.335633,66.8477481 216.001473,67.821772 215.999998,68.9097418 C215.998522,70.1683923 215.081886,71.4008208 213.486623,72.2904579 L126.713986,120.705592 C125.177734,121.56281 123.252011,122 121.415295,122 Z" id="Fill-160" fill="#FFFFFE"></path>
                <path d="M115.820557,111.844918 L73.0239364,87.579709 C71.6177457,86.7823462 70.9628277,85.7072234 71.0092931,84.589 L71,84.5923523 L71.0171188,78.5118027 L73.3971272,81.241992 C73.5511968,81.1423815 73.7072229,81.042771 73.8754766,80.9469917 L161.425156,31.6153789 C164.900281,29.656692 170.154299,29.4502876 173.159879,31.1546804 L215.355383,55.0793944 C216.20888,54.1642231 218,52.2309177 218,52.2309177 L217.979457,58.178334 L217.978968,58.1778551 C218.042063,59.5182865 217.067268,60.946835 215.104959,62.0521282 L127.555279,111.384699 C124.080154,113.343386 118.826136,113.54979 115.820557,111.844918" id="Fill-161" fill="#3B6397"></path>
                <path d="M93.4872035,97.5751897 L95.5127965,98.9320019 C95.7821252,99.1125059 96,98.9212742 96,98.5047623 C96,98.0887167 95.7821252,97.6050405 95.5127965,97.4250028 L93.4872035,96.0677242 C93.2182768,95.8876866 93,96.0789183 93,96.4954302 C93,96.9110093 93.2182768,97.3946856 93.4872035,97.5751897" id="Fill-162" fill="#263764"></path>
                <g id="Group-165" transform="translate(121.000000, 30.000000)">
                    <mask id="mask-2" fill="white">
                        <use xlink:href="#path-1"></use>
                    </mask>
                    <g id="Clip-164"></g>
                    <path d="M40.755196,1.9132931 C44.2541407,-0.0372068966 49.5441709,-0.242798851 52.5703518,1.45488506 L95.0550754,25.2854253 C95.9144221,24.3738563 97.7178191,22.4481609 97.7178191,22.4481609 L97.6971357,28.3721667 L97.6966432,28.3716897 C97.7601709,29.7068448 96.7786935,31.1297701 94.8029347,32.2307126 L6.65365829,81.3690977 C4.82760804,82.3870402 2.51598995,82.9246322 0.291537688,82.9704253 L0.375256281,24.4225115 L40.755196,1.9132931" id="Fill-163" fill="url(#linearGradient-3)" mask="url(#mask-2)"></path>
                </g>
                <path d="M215.973566,49.420437 L173.172633,25.1546956 C170.16675,23.4507779 164.912203,23.656225 161.436238,25.6149162 L73.8787139,74.9475947 C70.4022601,76.9062859 70.0212051,79.8754511 73.0265987,81.5793687 L115.827532,105.84511 C118.833415,107.549507 124.087473,107.343581 127.563926,105.38489 L215.121451,56.0526899 C218.597415,54.0939987 218.978959,51.1248336 215.973566,49.420437" id="Fill-166" fill="#D4EAF2"></path>
                <path d="M115.824997,106.843292 L73.0199312,82.5308979 C71.469654,81.6499515 70.8278226,80.4321726 71.0391573,79.189923 C71.1149834,80.1994607 71.7749153,81.154779 73.0527076,81.8802642 L115.857284,106.192658 C118.863423,107.900332 124.117928,107.69401 127.594678,105.731553 L215.159655,56.3045087 C216.842995,55.3539886 217.793512,54.1664383 217.992617,53 C218.095349,54.3641235 217.125264,55.8266097 215.126879,56.9546625 L127.561901,106.381707 C124.085641,108.344163 118.830646,108.550485 115.824997,106.843292" id="Fill-167" fill="#FFFFFE"></path>
                <g id="Group-170" transform="translate(74.000000, 26.000000)">
                    <mask id="mask-5" fill="white">
                        <use xlink:href="#path-4"></use>
                    </mask>
                    <g id="Clip-169"></g>
                    <path d="M139.303087,24.5546988 L97.9969652,1.09108434 C95.7532474,-0.183614458 91.8307944,-0.0298795181 89.2358049,1.43566265 L2.54586063,50.3744578 C-0.0491289199,51.8395181 -0.333585366,54.0607229 1.90964111,55.3354217 L43.2162544,78.7995181 C45.4599721,80.0742169 49.3819338,79.92 51.9774146,78.4554217 L138.667359,29.5156627 C141.262348,28.0506024 141.546805,25.8298795 139.303087,24.5546988" id="Fill-168" fill="url(#radialGradient-6)" mask="url(#mask-5)"></path>
                </g>
                <polyline id="Fill-171" fill="#D4EAF2" points="128.13998 92 99 76.0202519 100.86002 75 130 90.9797481 128.13998 92"></polyline>
                <polyline id="Fill-172" fill="#D4EAF2" points="107.208768 87 93 79.0078341 94.7907589 78 109 85.9926267 107.208768 87"></polyline>
                <polyline id="Fill-173" fill="#DA3685" points="115.041097 92 110 89.1194469 111.958903 88 117 90.8805531 115.041097 92"></polyline>
                <polyline id="Fill-174" fill="#FFFFFE" points="122.041097 96 117 93.1193036 118.958903 92 124 94.8801843 122.041097 96"></polyline>
                <polyline id="Fill-175" fill="#FFFFFE" points="107.117793 84 95 77.0758163 96.8822068 76 109 82.9241837 107.117793 84"></polyline>
                <polyline id="Fill-176" fill="#D4EAF2" points="122.117793 93 110 86.0753905 111.882207 85 124 91.9246095 122.117793 93"></polyline>
                <path d="M113.560721,78.706881 C112.974535,79.0977063 112.025405,79.0977063 111.439699,78.706881 C110.853514,78.3166101 110.853514,77.6835285 111.439219,77.2927032 C112.025405,76.9024323 112.974535,76.9024323 113.560721,77.2927032 C114.146426,77.6835285 114.146426,78.3166101 113.560721,78.706881" id="Fill-177" fill="#DA3685"></path>
                <path d="M116.560711,79.7072359 C115.974911,80.097588 115.025149,80.097588 114.439349,79.7072359 C113.85355,79.3168838 113.85355,78.6831162 114.439349,78.2927641 C115.025149,77.902412 115.974911,77.902412 116.56023,78.2927641 C117.14651,78.6836706 117.14651,79.3168838 116.560711,79.7072359" id="Fill-178" fill="#FFFFFE"></path>
                <path d="M119.560352,81.7072359 C118.974635,82.097588 118.025485,82.097588 117.439288,81.7072359 C116.853571,81.3168838 116.853571,80.6831162 117.439288,80.2927641 C118.025485,79.902412 118.974635,79.902412 119.560352,80.2927641 C120.146549,80.6831162 120.146549,81.3168838 119.560352,81.7072359" id="Fill-179" fill="#D4EAF2"></path>
                <path d="M122.560659,83.7072359 C121.974872,84.097588 121.025128,84.097588 120.439341,83.7072359 C119.853553,83.3168838 119.853553,82.6836706 120.439341,82.2927641 C121.024648,81.902412 121.974872,81.902412 122.560659,82.2927641 C123.146447,82.6836706 123.146447,83.3168838 122.560659,83.7072359" id="Fill-180" fill="#DA3685"></path>
                <path d="M126.560506,85.7072968 C125.974753,86.0975677 125.025067,86.0975677 124.439314,85.7072968 C123.853562,85.3164715 123.853562,84.6833899 124.439314,84.293119 C125.025067,83.9022937 125.974753,83.9022937 126.560506,84.293119 C127.146258,84.6833899 127.146738,85.3164715 126.560506,85.7072968" id="Fill-181" fill="#FFFFFE"></path>
                <polyline id="Fill-182" fill="#DA3685" points="191.04109 51 186 48.1197403 187.959415 47 193 49.8802597 191.04109 51"></polyline>
                <polyline id="Fill-183" fill="#FFFFFE" points="198.040727 55 193 52.1193806 194.959273 51 200 53.8806194 198.040727 55"></polyline>
                <polyline id="Fill-184" fill="#FFFFFE" points="170.040949 39 165 36.1202397 166.959051 35 172 37.8807591 170.040949 39"></polyline>
                <polyline id="Fill-185" fill="#FFFFFE" points="190.035913 54 183 50.0907233 184.964087 49 192 52.9083033 190.035913 54"></polyline>
                <polyline id="Fill-186" fill="#D4EAF2" points="195.055778 56 192 54.1661752 193.944222 53 197 54.8333044 195.055778 56"></polyline>
                <path d="M203.679775,93 C203.573573,93 203.465868,92.975115 203.365677,92.9233541 C203.032542,92.7506519 202.903296,92.3425372 203.077628,92.0120638 C203.767442,90.699129 204.780372,89.5932377 205.85542,88.9755909 C206.531708,88.5878819 207.196976,88.4067188 207.812649,88.4375763 C208.705349,88.4739084 209.781399,87.8259019 210.733213,86.686167 C211.267731,86.0471191 211.878394,85.5205516 212.50058,85.1641978 C213.175866,84.7769865 213.831114,84.5913441 214.457808,84.6261831 C215.343997,84.6550498 216.426559,84.0145088 217.378372,82.8747738 C217.91239,82.2352282 218.523554,81.7091584 219.145238,81.3528046 C219.821527,80.9650956 220.478779,80.7824394 221.102968,80.81479 C221.993164,80.8416658 223.071218,80.2026179 224.024033,79.062883 C224.557048,78.4243328 225.168213,77.898263 225.790398,77.5409138 C226.787297,76.9685578 227.782192,76.8456257 228.591234,77.1950117 C228.935389,77.3443219 229.09319,77.7424826 228.943405,78.0849008 C228.793619,78.4268213 228.393858,78.5830994 228.048199,78.4347845 C227.646935,78.2600915 227.085365,78.3586363 226.470193,78.7110085 C225.986772,78.9887256 225.502349,79.4092828 225.070026,79.926394 C223.826156,81.4140218 222.357358,82.2317443 221.035339,82.164057 C220.674151,82.1466375 220.26437,82.2710627 219.825534,82.5228993 C219.341612,82.8006164 218.85719,83.2206759 218.425367,83.7377871 C217.181998,85.2249173 215.723219,86.0391559 214.390179,85.9754501 C214.025986,85.9570352 213.619712,86.0819581 213.180375,86.3347902 C212.696453,86.6120095 212.21203,87.0320691 211.780207,87.5491802 C210.53784,89.0363104 209.076056,89.8520421 207.74502,89.7868433 C207.385836,89.767433 206.974051,89.893849 206.535215,90.1461833 C205.678082,90.6379117 204.857018,91.5462158 204.282924,92.6371761 C204.161693,92.8681093 203.924742,93 203.679775,93" id="Fill-187" fill="#FFFFFE"></path>
                <path d="M166,117.829496 C166,118.570097 165.328675,119.470827 164.5,119.84135 C163.671899,120.211873 163,119.911184 163,119.170584 C163,118.429538 163.671899,117.528808 164.5,117.15873 C165.328675,116.788207 166,117.088451 166,117.829496" id="Fill-188" fill="#FFFFFE"></path>
                <path d="M170,115.829149 C170,116.57013 169.328675,117.470782 168.5,117.841273 C167.671899,118.211764 167,117.911546 167,117.17101 C167,116.429584 167.671899,115.528932 168.5,115.158441 C169.328675,114.788395 170,115.088613 170,115.829149" id="Fill-189" fill="#FFFFFE"></path>
                <path d="M174,113.829246 C174,114.57014 173.327972,115.471131 172.499713,115.841578 C171.671453,116.21158 171,115.911398 171,115.170949 C171,114.430055 171.671453,113.529064 172.499713,113.158617 C173.327972,112.788171 174,113.088797 174,113.829246" id="Fill-190" fill="#FFFFFE"></path>
                <path d="M178,110.829474 C178,111.5705 177.327972,112.471206 176.499713,112.841274 C175.670879,113.211787 175,112.911552 175,112.170526 C175,111.429945 175.670879,110.529239 176.499713,110.158726 C177.327972,109.788213 178,110.088448 178,110.829474" id="Fill-191" fill="#FFFFFE"></path>
                <path d="M155,11.8294489 C155,12.5700074 154.328675,13.4706866 153.500574,13.8411882 C152.671325,14.2116898 152,13.9119082 152,13.170905 C152,12.4294569 152.671325,11.5292225 153.500574,11.1587208 C154.328675,10.7882192 155,11.0884456 155,11.8294489" id="Fill-192" fill="#FFFFFE"></path>
                <path d="M159,9.82947403 C159,10.5704997 158.328675,11.4712063 157.500574,11.8412743 C156.671325,12.2117872 156,11.9115517 156,11.170526 C156,10.429945 156.671325,9.52923852 157.500574,9.15872566 C158.328675,8.7882128 159,9.08844831 159,9.82947403" id="Fill-193" fill="#FFFFFE"></path>
                <path d="M155,7.82949613 C155,8.57009679 154.328675,9.47082733 153.500574,9.84135006 C152.671325,10.2118728 152,9.91118448 152,9.17058382 C152,8.42953835 152.671325,7.52880781 153.500574,7.15872989 C154.328675,6.78820715 155,7.08845066 155,7.82949613" id="Fill-194" fill="#FFFFFE"></path>
                <path d="M159,5.82909504 C159,6.56965352 158.328675,7.47077753 157.500574,7.84127916 C156.671325,8.21178078 156,7.91155437 156,7.17055112 C156,6.42999264 156.671325,5.52931341 157.500574,5.15881178 C158.328675,4.78831015 159,5.08809178 159,5.82909504" id="Fill-195" fill="#FFFFFE"></path>
                <polyline id="Fill-196" fill="#FFFFFE" points="77 57.6665193 74 59 74 56.3334807 77 55 77 57.6665193"></polyline>
                <polyline id="Fill-197" fill="#FFFFFE" points="82 55.6665193 79 57 79 54.3334807 82 53 82 55.6665193"></polyline>
                <polyline id="Fill-198" fill="#FFFFFE" points="86 52.6669614 83 54 83 51.3334807 86 50 86 52.6669614"></polyline>
                <polyline id="Fill-199" fill="#FFFFFE" points="90 50.6666667 87 52 87 49.3328912 90 48 90 50.6666667"></polyline>
                <polyline id="Fill-200" fill="#FFFFFE" points="138 132.666961 135 134 135 131.333481 138 130 138 132.666961"></polyline>
                <polyline id="Fill-201" fill="#FFFFFE" points="142 130.666961 139 132 139 129.333481 142 128 142 130.666961"></polyline>
                <polyline id="Fill-202" fill="#FFFFFE" points="138 136.666519 135 138 135 135.333039 138 134 138 136.666519"></polyline>
                <polyline id="Fill-203" fill="#FFFFFE" points="142 134.666519 139 136 139 133.333039 142 132 142 134.666519"></polyline>
                <path d="M198.22832,1.67295036 C197.770109,1.93436597 197.338295,2.30950476 196.95778,2.75208976 C196.898014,0.275779915 195.100033,-0.713759407 192.886175,0.54950323 C192.176446,0.954180505 191.510047,1.54248871 190.928816,2.23762777 C189.943662,0.534733986 187.901136,0.138918257 185.534873,1.48931943 C182.206866,3.38864416 179.509396,8.00747894 179.509396,11.8051438 C179.509396,12.1187441 179.534299,12.4111751 179.570159,12.6927753 C179.095014,12.5716675 178.513285,12.6696368 177.882746,13.0295141 C176.29096,13.9378226 175,16.148286 175,17.9653953 C175,19.7829969 176.29096,20.5194898 177.882746,19.610689 L198.22832,7.99960201 C199.759343,7.12624741 201,5.00144556 201,3.25424404 C201,1.50753483 199.759343,0.799103447 198.22832,1.67295036" id="Fill-204" fill="#FFFFFE"></path>
                <path d="M57.6563308,138 C56.6745482,138 56,137.217449 56,135.864216 C56,134.253225 56.954918,132.348839 58.2468658,131.220657 L62.4753695,133.660576 L62.6101814,133.738685 L77.349621,125.23314 L77.3501094,125.23314 L78.879932,126.116256 L58.9937044,137.591394 C58.5130705,137.86868 58.0588129,138 57.6563308,138 M62.6101814,133.114304 L58.7074733,130.862333 C58.8017439,130.797406 58.8969915,130.73736 58.9937044,130.681219 C59.4723845,130.405398 59.9237115,130.27603 60.3247282,130.27603 C60.4722398,130.27603 60.6134016,130.293605 60.7462597,130.327777 C60.7086492,130.031453 60.6832498,129.725364 60.6832498,129.395844 C60.6832498,125.621731 63.1919243,121.076295 66.3902889,118.909268 L76.8089079,124.921194 L62.6101814,133.114304 M79.4211336,125.803822 L77.8908226,124.921194 L82.6654124,122.165911 C82.1823362,123.495711 81.2244876,124.763512 80.1215695,125.399609 L79.4211336,125.803822 M77.3501094,124.608759 L66.9075565,118.583165 C66.9183024,118.576818 66.9295367,118.570472 66.9402826,118.564126 C67.9420916,117.986122 68.8872406,117.712741 69.7259077,117.712741 C70.9436113,117.712741 71.9356514,118.290257 72.5418167,119.349606 C73.1450513,118.61929 73.8371836,118.002232 74.5737649,117.577516 C75.2527091,117.185508 75.8935543,117 76.462109,117 C77.8180437,117 78.7583082,118.057396 78.8017801,119.89002 C79.1979123,119.425762 79.6458201,119.031313 80.1215695,118.756957 C80.5841308,118.489923 81.0208043,118.363484 81.407656,118.363484 C82.3518281,118.363484 83,119.116256 83,120.417254 C83,120.740428 82.9599472,121.076295 82.8852145,121.414604 L77.3501094,124.608759" id="Fill-205" fill="#D1E9F2"></path>
                <path d="M78.1521914,125 L83,122.391666 L78.1521914,125 M77.6031864,124.704229 L67,119 L67.0004959,119 L77.6031864,124.704229 L82.6364763,121.996072 L77.6031864,124.704229" id="Fill-206" fill="#E5F4F8"></path>
                <path d="M78.6583127,126 L77,125.248676 L77.5861278,124.983283 L77,124.717475 L83,122 C82.9406989,122.213062 82.8602188,122.426955 82.7617367,122.639186 L77.5861278,124.983283 L79.24497,125.734192 L78.6583127,126" id="Fill-207" fill="#E5F4F8"></path>
                <path d="M62.4424,134 L62.3051446,133.922693 L58,131.507811 C58.1516772,131.378805 58.3083273,131.259945 58.4689559,131.153165 L62.4424,133.382026 L76.8984758,125.272991 L66.2910212,119.322757 C66.4645797,119.208246 66.6401273,119.100499 66.8171669,119 L77.4494865,124.963762 L78,125.272991 L77.4494865,125.581736 L77.4489892,125.581736 L62.4424,134" id="Fill-208" fill="#E5F4F8"></path>
                <path d="M161.020995,74.2175852 C154.38224,77.9274716 143.618255,77.9274716 136.979499,74.2175852 C130.340249,70.5076989 130.340249,64.4923011 136.979005,60.7824148 C143.61776,57.0725284 154.381745,57.0725284 161.020501,60.7824148 C167.659751,64.4923011 167.659751,70.5076989 161.020995,74.2175852" id="Fill-229" fill="#1F2A4C"></path>
                <path d="M170,55.00584 L170,49.1738825 L168.887,49.1738825 C167.887071,47.4714158 166.222487,45.8681503 163.849006,44.5128876 C155.647517,39.8290375 142.350516,39.8290375 134.149519,44.5128876 C131.775546,45.8681503 130.110963,47.4714158 129.111525,49.1738825 L128,49.1738825 L128,54.9747181 L128.001475,54.9747181 C127.98771,58.0548164 130.035255,61.1368598 134.150011,63.4870516 C142.351008,68.1709017 155.648009,68.1709017 163.849498,63.4875379 C167.950488,61.1451266 170.000492,58.0757264 170,55.00584" id="Fill-230" fill="#DA3685"></path>
                <path d="M163.849006,44.5124095 C159.748508,42.1709653 154.373762,41 149,41 L149,67 C154.374254,67 159.748999,65.8290347 163.849498,63.4875905 C167.950488,61.1451737 170.000492,58.0757664 170,55.0058728 L170,49.1739017 L168.887,49.1739017 C167.887071,47.471431 166.222487,45.8681617 163.849006,44.5124095" id="Fill-231" fill="#A42274"></path>
                <g id="Group-234" transform="translate(127.000000, 37.000000)">
                    <mask id="mask-8" fill="white">
                        <use xlink:href="#path-7"></use>
                    </mask>
                    <g id="Clip-233"></g>
                    <path d="M36.4294023,20.30448 C28.1837816,24.92784 14.8152299,24.92736 6.57010345,20.304 C-1.67551724,15.68064 -1.67551724,8.18544 6.5696092,3.56208 C14.8147356,-1.06128 28.1832874,-1.0608 36.428908,3.56256 C44.6740345,8.18592 44.6740345,15.68112 36.4294023,20.30448" id="Fill-232" fill="url(#linearGradient-9)" mask="url(#mask-8)"></path>
                </g>
                <path d="M163.864784,56.8533538 C155.65526,61.3956148 142.345232,61.3956148 134.1362,56.8533538 C130.201947,54.6772368 128.174047,51.8518213 128.010674,49 C127.833522,52.0989037 129.860929,55.2284569 134.1362,57.5936579 C142.345232,62.1354474 155.65526,62.1354474 163.864784,57.5936579 C168.139071,55.2284569 170.166478,52.0993752 169.989326,49.0004715 C169.825953,51.8518213 167.799037,54.6772368 163.864784,56.8533538" id="Fill-235" fill="#FFFFFE"></path>
                <path d="M140.50398,49.6099318 L148.644523,45.2687212 C149.564983,44.7777215 151.135265,44.9903981 151.504714,45.6563052 L154.927111,51.8230274 C155.313597,52.5195096 154.099135,53.1674313 152.794136,52.9610496 L141.23071,51.135538 C139.982175,50.9385985 139.583034,50.1009315 140.50398,49.6099318" id="Fill-236" fill="#FFFFFE"></path>
                <polyline id="Fill-237" fill="#76A9CF" points="146.120995 86 113 66.5170708 113.879005 66 147 85.483424 146.120995 86"></polyline>
                <polyline id="Fill-238" fill="#D4EAF2" points="123.163112 73 112 66.9895193 113.837373 66 125 72.0113864 123.163112 73"></polyline>
                <polyline id="Fill-239" fill="#FFFFFE" points="122.4202 74 122 73.7254212 124.5798 72 125 72.2745788 122.4202 74"></polyline>
                <path d="M14.5,47.1371945 C13.9054173,47.1371945 13.4214931,47.5243338 13.4214931,48 C13.4214931,48.4756662 13.9054173,48.8628055 14.5,48.8628055 C15.0945827,48.8628055 15.5785069,48.4756662 15.5785069,48 C15.5785069,47.5243338 15.0945827,47.1371945 14.5,47.1371945 Z M14.5,50 C13.121449,50 12,49.1028408 12,48 C12,46.8971592 13.121449,46 14.5,46 C15.878551,46 17,46.8971592 17,48 C17,49.1028408 15.878551,50 14.5,50 Z" id="Fill-240" fill="#FFFFFE"></path>
                <path d="M7.5,47.1371945 C6.90541731,47.1371945 6.42149306,47.5243338 6.42149306,48 C6.42149306,48.4756662 6.90541731,48.8628055 7.5,48.8628055 C8.09458269,48.8628055 8.57850694,48.4756662 8.57850694,48 C8.57850694,47.5243338 8.09458269,47.1371945 7.5,47.1371945 Z M7.5,50 C6.12144902,50 5,49.1028408 5,48 C5,46.8971592 6.12144902,46 7.5,46 C8.87855098,46 10,46.8971592 10,48 C10,49.1028408 8.87855098,50 7.5,50 Z" id="Fill-241" fill="#FFFFFE"></path>
                <path d="M3,47.5 C3,48.3284615 2.32846154,49 1.5,49 C0.671538462,49 0,48.3284615 0,47.5 C0,46.6715385 0.671538462,46 1.5,46 C2.32846154,46 3,46.6715385 3,47.5" id="Fill-242" fill="#FFFFFE"></path>
                <path d="M36.6795218,120 C36.5732941,120 36.4655772,119.975342 36.3648098,119.923068 C36.0322277,119.74997 35.9036624,119.34213 36.0773993,119.011222 C36.7678795,117.698441 37.7805175,116.592292 38.8557009,115.975847 C39.5317857,115.58724 40.1850365,115.408225 40.8134678,115.437814 C41.6920802,115.489102 42.7806661,114.825807 43.7337372,113.686617 C44.2753,113.038117 44.8694803,112.526221 45.5008899,112.164245 C46.1764783,111.776624 46.8356858,111.590704 47.457664,111.626211 C48.3526574,111.669609 49.4263515,111.015191 50.3789263,109.874521 C50.9204891,109.226514 51.5151657,108.714619 52.1455825,108.352642 C52.8216674,107.965021 53.4793857,107.779595 54.1028531,107.814609 C54.9849402,107.855541 56.0715406,107.203589 57.0241153,106.063412 C57.5641889,105.415405 58.159362,104.903509 58.7907716,104.541533 C59.7875251,103.968485 60.7817967,103.84569 61.5909144,104.194844 C61.9354099,104.343777 62.0927659,104.741754 61.9438485,105.084004 C61.7939384,105.426254 61.3933507,105.583571 61.0488552,105.434638 C60.6457855,105.260554 60.0853598,105.359185 59.4708275,105.711792 C58.9863497,105.989439 58.5018719,106.409607 58.0705079,106.926435 C56.8275444,108.413793 55.3721254,109.232925 54.0353439,109.164377 C53.6819133,109.150568 53.2644483,109.270898 52.8256385,109.522901 C52.3416571,109.800548 51.8571793,110.220224 51.4248225,110.737544 C50.1823553,112.225396 48.7274327,113.046501 47.3901548,112.975486 C47.0397026,112.962664 46.6192593,113.082501 46.1804495,113.334504 C45.696468,113.611657 45.2124866,114.032319 44.7801299,114.54964 C43.5371663,116.036999 42.0792653,116.854158 40.7454622,116.787582 C40.3900461,116.770815 39.975063,116.894104 39.5352604,117.146106 C38.6784892,117.637783 37.8569618,118.545683 37.2826371,119.63753 C37.1615177,119.868327 36.9242427,120 36.6795218,120" id="Fill-244" fill="#FFFFFE"></path>
                <path d="M209.94348,21.2287457 C209.461322,21.2287457 208.908199,21.3929094 208.320852,21.7178667 C206.094267,22.9469278 204.2824,25.9480898 204.2824,28.4071748 C204.2824,29.4648509 204.622125,30.2341575 205.238663,30.5745202 C205.853692,30.914883 206.720872,30.8113781 207.678645,30.2822993 C209.905229,29.0532382 211.717097,26.0525576 211.717097,23.5929912 C211.717097,22.5357965 211.377372,21.7655272 210.760833,21.4251644 C210.523277,21.2937372 210.247471,21.2287457 209.94348,21.2287457 Z M206.051487,32 C205.526046,32 205.034828,31.8796454 204.596457,31.637492 C203.566712,31.0689369 203,29.921717 203,28.4071748 C203,25.5090363 205.055463,22.1034828 207.678645,20.6544136 C209.050128,19.8976239 210.372792,19.7931562 211.402537,20.3621926 C212.432785,20.9312291 213,22.0784491 213,23.5929912 C213,26.4916112 210.944537,29.8966832 208.320852,31.3457525 C207.532689,31.7804732 206.760632,32 206.051487,32 Z" id="Fill-245" fill="#FFFFFE"></path>
            </g>
        </g>
    </g>
</svg>