<?xml version="1.0" encoding="UTF-8"?>
<svg width="50px" height="50px" viewBox="0 0 50 50" version="1.1" xmlns="http://www.w3.org/2000/svg" xmlns:xlink="http://www.w3.org/1999/xlink">
    <!-- Generator: Sketch 52.6 (67491) - http://www.bohemiancoding.com/sketch -->
    <title>Shape</title>
    <desc>Created with Sketch.</desc>
    <g id="Device" stroke="none" stroke-width="1" fill="none" fill-rule="evenodd">
        <g id="noun_Info_1585217" fill="#A4AAB3" fill-rule="nonzero">
            <path d="M27.176,20.075 L21.723,20.075 L21.723,23.313 L22.822,23.313 L22.822,34.927 L21.723,34.927 L21.723,38.165 L28.278,38.165 L28.278,34.927 L27.176,34.927 L27.176,20.075 Z M50,25 C50,11.193 38.807,0 25,0 C11.193,0 0,11.193 0,25 C0,38.807 11.193,50 25,50 C38.807,50 50,38.807 50,25 Z M25,2.83 C37.246,2.83 47.17,12.754 47.17,25 C47.17,37.246 37.246,47.17 25,47.17 C12.754,47.17 2.83,37.246 2.83,25 C2.83,12.754 12.754,2.83 25,2.83 Z M22.474,14.363 C22.474,15.757 23.605,16.887 25,16.887 C26.393,16.887 27.524,15.757 27.524,14.363 C27.524,12.968 26.393,11.837 25,11.837 C23.605,11.836 22.474,12.967 22.474,14.363 Z" id="Shape"></path>
        </g>
    </g>
</svg>