<?xml version="1.0" encoding="utf-8"?>
<!-- Generator: Adobe Illustrator 22.0.0, SVG Export Plug-In . SVG Version: 6.00 Build 0)  -->
<svg version="1.1" xmlns="http://www.w3.org/2000/svg" xmlns:xlink="http://www.w3.org/1999/xlink" x="0px" y="0px"
	 viewBox="0 0 1448 412" style="enable-background:new 0 0 1448 412;" xml:space="preserve">
<style type="text/css">
	.st0{fill:none;stroke:#FFFFFF;stroke-width:2.5;}
	.st1{fill:url(#path-2_2_);}
	.st2{filter:url(#filter-3);}
	.st3{fill:url(#Path-Copy_1_);}
	.st4{display:none;}
	.st5{display:inline;fill:none;stroke:#FFFFFF;stroke-width:6;}
	.st6{opacity:0.5;}
	.st7{fill:#FFFFFF;}
</style>
<filter  filterUnits="objectBoundingBox" height="107.9%" id="filter-3" width="102.2%" x="-1.1%" y="-3.9%">
	<feGaussianBlur  in="SourceAlpha" result="shadowBlurInner1" stdDeviation="13"></feGaussianBlur>
	<feOffset  dx="0" dy="6" in="shadowBlurInner1" result="shadowOffsetInner1"></feOffset>
	<feComposite  in="shadowOffsetInner1" in2="SourceAlpha" k2="-1" k3="1" operator="arithmetic" result="shadowInnerInner1">
		</feComposite>
	<feColorMatrix  in="shadowInnerInner1" type="matrix" values="0 0 0 0 0   0 0 0 0 0   0 0 0 0 0  0 0 0 0.292459239 0">
		</feColorMatrix>
</filter>
<g id="Livello_1">
	<title>lineLogin</title>
	<desc>Created with Sketch.</desc>
	<g id="Page-1_1_">
		<g id="lineLogin" transform="translate(2.000000, 1.000000)">
			<g id="Group">
				<path id="Path" class="st0" d="M1,407c219.1-148,438.6-222,746.4-222S1243.5,137.7,1441,1C847.8,45.6,549.5,68.4,546.1,69.3
					C229.5,158.6,47.8,271.1,1,407z"/>
				<g id="Path_1_">
					<g>
						
							<linearGradient id="path-2_2_" gradientUnits="userSpaceOnUse" x1="-236.3368" y1="744.1798" x2="-236.3368" y2="745.2192" gradientTransform="matrix(1440 0 0 -406 341046 302543)">
							<stop  offset="1.354769e-04" style="stop-color:#EA073E"/>
							<stop  offset="1" style="stop-color:#D1031D"/>
						</linearGradient>
						<path id="path-2" class="st1" d="M1,406c219.1-148,438.6-222,746.4-222S1243.5,136.7,1441,0H1V406z"/>
					</g>
					<g class="st2">
						<path id="path-2_3_" d="M1,406c219.1-148,438.6-222,746.4-222S1243.5,136.7,1441,0H1V406z"/>
					</g>
				</g>
				
					<linearGradient id="Path-Copy_1_" gradientUnits="userSpaceOnUse" x1="-236.3368" y1="744.1818" x2="-236.3368" y2="745.2213" gradientTransform="matrix(1440.3428 0 0 -407 341126.9062 303289)">
					<stop  offset="1.354769e-04" style="stop-color:#EA073E"/>
					<stop  offset="1" style="stop-color:#D1031D"/>
				</linearGradient>
				<path id="Path-Copy" class="st3" d="M1,407c0-10.2-1.6-13.5,2.2-21c140.4-273.8,384.3-236.1,682.1-261.8
					C996.5,97.3,1208.3,68.6,1441,0H1V407z"/>
				<g id="Page-1" transform="translate(61.000000, 55.000000)" class="st4">
					<polyline id="LOGO" class="st5" points="52.7,36.1 28.5,0 0,47 75,47 					"/>
				</g>
			</g>
			<g id="Group-11" transform="translate(104.000000, 109.000000)" class="st6">
				<path id="Fill-1" class="st7" d="M4.3,0L0,9h1.4l1-2.1h3.7L7,9h1.4L4.3,0z M4.3,2.9l1.3,2.9H2.9L4.3,2.9z"/>
				<g id="Group-10" transform="translate(9.000000, 0.000000)">
					<path id="Fill-2" class="st7" d="M1.6,4.2H2c1.2,0,1.8-0.5,1.8-1.5c0-0.9-0.6-1.4-1.8-1.4H1.6V4.2z M3.2,5.2L5.8,9H4.2L1.8,5.4
						H1.6V9H0.3V0.1h1.5c1.1,0,1.9,0.2,2.4,0.7c0.5,0.5,0.8,1.1,0.8,1.9c0,0.6-0.2,1.2-0.5,1.6C4.2,4.8,3.7,5.1,3.2,5.2z"/>
					<path id="Fill-4" class="st7" d="M8.4,7.7h0.8c0.6,0,1-0.1,1.3-0.4c0.3-0.3,0.4-0.6,0.4-1c0-0.4-0.1-0.7-0.4-1
						C10.2,5.2,9.7,5.1,9,5.1H8.4V7.7z M8.4,4h0.4c0.5,0,0.8-0.1,1-0.3c0.2-0.2,0.3-0.5,0.3-1c0-0.4-0.1-0.7-0.3-0.9
						c-0.2-0.2-0.6-0.3-1-0.3H8.4V4z M7.1,9V0.1h1.3c0.6,0,1,0,1.4,0.1c0.3,0.1,0.6,0.2,0.9,0.5C10.8,1,11,1.3,11.1,1.6
						c0.1,0.3,0.2,0.7,0.2,1c0,0.6-0.2,1.2-0.7,1.6c0.5,0.2,0.8,0.4,1.1,0.8c0.3,0.4,0.4,0.9,0.4,1.4c0,0.7-0.2,1.3-0.7,1.8
						c-0.3,0.3-0.6,0.5-1,0.6C10.1,8.9,9.6,9,9,9H7.1z"/>
					<polygon id="Fill-6" class="st7" points="18.4,1.4 15,1.4 15,3.5 18.3,3.5 18.3,4.8 15,4.8 15,7.7 18.4,7.7 18.4,9 13.7,9 
						13.7,0.1 18.4,0.1 					"/>
					<polygon id="Fill-8" class="st7" points="21.4,0.1 21.4,7.7 23.9,7.7 23.9,9 20.1,9 20.1,0.1 					"/>
				</g>
			</g>
		</g>
	</g>
</g>
<g id="Livello_2">
	
		<image style="overflow:visible;" width="717" height="509" xlink:href="../../../New-LOGOw.png"  transform="matrix(0.1178 0 0 0.1178 54.503 45.8309)">
	</image>
</g>
</svg>
