<?xml version="1.0" encoding="UTF-8"?>
<svg width="1440px" height="469px" viewBox="0 0 1440 469" version="1.1" xmlns="http://www.w3.org/2000/svg" xmlns:xlink="http://www.w3.org/1999/xlink">
    <!-- Generator: Sketch 52.6 (67491) - http://www.bohemiancoding.com/sketch -->
    <title>Group 2</title>
    <desc>Created with Sketch.</desc>
    <defs>
        <linearGradient x1="10.7783253%" y1="99.9859159%" x2="10.7783253%" y2="-3.95970572%" id="linearGradient-1">
            <stop stop-color="#EA073E" offset="0.0135476879%"></stop>
            <stop stop-color="#D1031D" offset="100%"></stop>
        </linearGradient>
    </defs>
    <g id="LOGIN" stroke="none" stroke-width="1" fill="none" fill-rule="evenodd">
        <g id="Desktop-HD">
            <g id="Group-2">
                <g id="Group">
                    <path d="M-1.13686838e-13,469 C219.093418,321 467.89263,247 746.397634,247 C1024.90264,247 1256.10343,200.90298 1440,108.708939 L1440,0 L-1.13686838e-13,0 L-1.13686838e-13,469 Z" id="Path" fill="url(#linearGradient-1)" fill-rule="nonzero"></path>
                    <g id="Page-1" transform="translate(94.000000, 60.000000)" stroke="#FFFFFF" stroke-width="9">
                        <polyline id="LOGO" points="87.0495265 59.2046708 47.074259 0 0 77 124 77"></polyline>
                    </g>
                </g>
                <g id="Group-11" opacity="0.5" transform="translate(162.000000, 148.000000)" fill="#FFFFFF">
                    <path d="M7.12575613,0 L0,15 L2.34065584,15 L3.94524037,11.5716782 L10.110156,11.5716782 L11.6217765,15 L14,15 L7.12575613,0 Z M7.08818848,4.77119561 L9.22445081,9.57047175 L4.85004776,9.57047175 L7.08818848,4.77119561 Z" id="Fill-1"></path>
                    <g id="Group-10" transform="translate(15.000000, 0.000000)">
                        <path d="M2.6421875,7.023 L3.3196875,7.023 C5.3396875,7.023 6.3503125,6.21756522 6.3503125,4.60604348 C6.3503125,3.09626087 5.3671875,2.34169565 3.4021875,2.34169565 L2.6421875,2.34169565 L2.6421875,7.023 Z M5.2971875,8.71408696 L9.6734375,14.9997391 L7.0640625,14.9997391 L3.0265625,8.96256522 L2.6421875,8.96256522 L2.6421875,14.9997391 L0.5090625,14.9997391 L0.5090625,0.249521739 L3.0084375,0.249521739 C4.8759375,0.249521739 6.2246875,0.616043478 7.0553125,1.34843478 C7.9703125,2.16365217 8.4284375,3.23973913 8.4284375,4.57734783 C8.4284375,5.62213043 8.1415625,6.52017391 7.5678125,7.27147826 C6.9940625,8.02278261 6.2371875,8.50408696 5.2971875,8.71408696 Z" id="Fill-2"></path>
                        <path d="M13.9306875,12.9078261 L15.2488125,12.9078261 C16.2131875,12.9078261 16.9213125,12.7102174 17.3731875,12.3156522 C17.8494375,11.8891304 18.0869375,11.3471739 18.0869375,10.6917391 C18.0869375,10.0545652 17.8581875,9.51978261 17.4006875,9.08673913 C16.9550625,8.65956522 16.1581875,8.44630435 15.0113125,8.44630435 L13.9306875,8.44630435 L13.9306875,12.9078261 Z M13.9306875,6.58369565 L14.5988125,6.58369565 C15.3925625,6.58369565 15.9738125,6.40043478 16.3431875,6.03391304 C16.7125625,5.66804348 16.8969375,5.12804348 16.8969375,4.41521739 C16.8969375,3.72065217 16.7075625,3.19369565 16.3294375,2.83369565 C15.9506875,2.47369565 15.4019375,2.29434783 14.6813125,2.29434783 L13.9306875,2.29434783 L13.9306875,6.58369565 Z M11.7975625,15 L11.7975625,0.249782609 L13.9213125,0.249782609 C14.8675625,0.249782609 15.6213125,0.326086957 16.1831875,0.478695652 C16.7506875,0.631956522 17.2294375,0.889565217 17.6200625,1.25282609 C18.0169375,1.62847826 18.3313125,2.09673913 18.5631875,2.65695652 C18.8013125,3.22369565 18.9200625,3.79695652 18.9200625,4.37673913 C18.9200625,5.43391304 18.5325625,6.32869565 17.7575625,7.06108696 C18.5081875,7.32847826 19.1000625,7.79673913 19.5338125,8.46521739 C19.9731875,9.12782609 20.1931875,9.89869565 20.1931875,10.7771739 C20.1931875,11.9302174 19.8025625,12.9045652 19.0213125,13.7008696 C18.5513125,14.1913043 18.0231875,14.5317391 17.4369375,14.7228261 C16.7963125,14.9073913 15.9938125,15 15.0294375,15 L11.7975625,15 Z" id="Fill-4"></path>
                        <polygon id="Fill-6" points="30.6848125 2.34182609 25.0179375 2.34182609 25.0179375 5.8863913 30.5198125 5.8863913 30.5198125 7.97856522 25.0179375 7.97856522 25.0179375 12.9076957 30.6848125 12.9076957 30.6848125 14.9998696 22.8848125 14.9998696 22.8848125 0.249652174 30.6848125 0.249652174"></polygon>
                        <polygon id="Fill-8" points="35.6195 0.249652174 35.6195 12.9076957 39.77575 12.9076957 39.77575 14.9998696 33.486375 14.9998696 33.486375 0.249652174"></polygon>
                    </g>
                </g>
            </g>
        </g>
    </g>
</svg>