<?xml version="1.0" encoding="UTF-8"?>
<svg width="1448px" height="412px" viewBox="0 0 1448 412" version="1.1" xmlns="http://www.w3.org/2000/svg" xmlns:xlink="http://www.w3.org/1999/xlink">
    <!-- Generator: Sketch 52.6 (67491) - http://www.bohemiancoding.com/sketch -->
    <title>lineLogin</title>
    <desc>Created with Sketch.</desc>
    <defs>
        <linearGradient x1="10.7783253%" y1="99.9859159%" x2="10.7783253%" y2="-3.95970572%" id="linearGradient-1">
            <stop stop-color="#EA073E" offset="0.0135476879%"></stop>
            <stop stop-color="#D1031D" offset="100%"></stop>
        </linearGradient>
        <path d="M1,406 C220.093418,258 439.637371,184 747.397634,184 C1055.1579,184 1243.47442,136.680992 1441,0 L1,0 L1,406 Z" id="path-2"></path>
        <filter x="-1.1%" y="-3.9%" width="102.2%" height="107.9%" filterUnits="objectBoundingBox" id="filter-3">
            <feGaussianBlur stdDeviation="13" in="SourceAlpha" result="shadowBlurInner1"></feGaussianBlur>
            <feOffset dx="0" dy="6" in="shadowBlurInner1" result="shadowOffsetInner1"></feOffset>
            <feComposite in="shadowOffsetInner1" in2="SourceAlpha" operator="arithmetic" k2="-1" k3="1" result="shadowInnerInner1"></feComposite>
            <feColorMatrix values="0 0 0 0 0   0 0 0 0 0   0 0 0 0 0  0 0 0 0.292459239 0" type="matrix" in="shadowInnerInner1"></feColorMatrix>
        </filter>
    </defs>
    <g id="Page-1" stroke="none" stroke-width="1" fill="none" fill-rule="evenodd">
        <g id="lineLogin" transform="translate(2.000000, 1.000000)">
            <g id="Group">
                <path d="M1,407 C220.093418,259 439.637371,185 747.397634,185 C1055.1579,185 1243.47442,137.680992 1441,1 C847.780499,45.5826892 549.481322,68.3503581 546.10247,69.3030068 C229.481322,158.57258 47.780499,271.138245 1,407 Z" id="Path" stroke="#FFFFFF" stroke-width="2.5"></path>
                <g id="Path">
                    <use fill="url(#linearGradient-1)" fill-rule="evenodd" xlink:href="#path-2"></use>
                    <use fill="black" fill-opacity="1" filter="url(#filter-3)" xlink:href="#path-2"></use>
                </g>
                <path d="M1,407 C1,396.794504 -0.629091923,393.474362 3.21588861,385.979687 C143.659451,112.225655 387.499981,149.855053 685.26628,124.137129 C996.504377,97.255652 1208.29864,68.6116401 1441,-2.84217094e-14 L1,-2.84217094e-14 L1,407 Z" id="Path-Copy" fill="url(#linearGradient-1)"></path>
                <g id="Page-1" transform="translate(61.000000, 55.000000)" stroke="#FFFFFF" stroke-width="6">
                    <polyline id="LOGO" points="52.6509233 36.1379159 28.4723341 0 0 47 75 47"></polyline>
                </g>
            </g>
            <g id="Group-11" opacity="0.5" transform="translate(104.000000, 109.000000)" fill="#FFFFFF">
                <path d="M4.27545368,0 L0,9 L1.4043935,9 L2.36714422,6.94300692 L6.0660936,6.94300692 L6.9730659,9 L8.4,9 L4.27545368,0 Z M4.25291309,2.86271737 L5.53467049,5.74228305 L2.91002866,5.74228305 L4.25291309,2.86271737 Z" id="Fill-1" fill-rule="nonzero"></path>
                <g id="Group-10" transform="translate(9.000000, 0.000000)">
                    <path d="M1.5853125,4.2138 L1.9918125,4.2138 C3.2038125,4.2138 3.8101875,3.73053913 3.8101875,2.76362609 C3.8101875,1.85775652 3.2203125,1.40501739 2.0413125,1.40501739 L1.5853125,1.40501739 L1.5853125,4.2138 Z M3.1783125,5.22845218 L5.8040625,8.99984346 L4.2384375,8.99984346 L1.8159375,5.37753913 L1.5853125,5.37753913 L1.5853125,8.99984346 L0.3054375,8.99984346 L0.3054375,0.149713043 L1.8050625,0.149713043 C2.9255625,0.149713043 3.7348125,0.369626087 4.2331875,0.809060868 C4.7821875,1.2981913 5.0570625,1.94384348 5.0570625,2.7464087 C5.0570625,3.37327826 4.8849375,3.91210435 4.5406875,4.36288696 C4.1964375,4.81366957 3.7423125,5.10245218 3.1783125,5.22845218 Z" id="Fill-2" fill-rule="nonzero"></path>
                    <path d="M8.3584125,7.74469566 L9.1492875,7.74469566 C9.7279125,7.74469566 10.1527875,7.62613044 10.4239125,7.38939132 C10.7096625,7.13347824 10.8521625,6.80830434 10.8521625,6.41504346 C10.8521625,6.03273912 10.7149125,5.71186957 10.4404125,5.45204348 C10.1730375,5.19573913 9.6949125,5.06778261 9.0067875,5.06778261 L8.3584125,5.06778261 L8.3584125,7.74469566 Z M8.3584125,3.95021739 L8.7592875,3.95021739 C9.2355375,3.95021739 9.5842875,3.84026087 9.8059125,3.62034782 C10.0275375,3.40082609 10.1381625,3.07682609 10.1381625,2.64913043 C10.1381625,2.2323913 10.0245375,1.91621739 9.7976625,1.70021739 C9.5704125,1.48421739 9.2411625,1.3766087 8.8087875,1.3766087 L8.3584125,1.3766087 L8.3584125,3.95021739 Z M7.0785375,9 L7.0785375,0.149869565 L8.3527875,0.149869565 C8.9205375,0.149869565 9.3727875,0.195652174 9.7099125,0.287217391 C10.0504125,0.379173913 10.3376625,0.53373913 10.5720375,0.751695654 C10.8101625,0.977086956 10.9987875,1.25804348 11.1379125,1.59417391 C11.2807875,1.93421739 11.3520375,2.27817391 11.3520375,2.62604348 C11.3520375,3.26034782 11.1195375,3.79721739 10.6545375,4.23665218 C11.1049125,4.39708696 11.4600375,4.67804348 11.7202875,5.07913043 C11.9839125,5.47669565 12.1159125,5.93921739 12.1159125,6.46630434 C12.1159125,7.15813044 11.8815375,7.74273912 11.4127875,8.22052176 C11.1307875,8.51478258 10.8139125,8.71904346 10.4621625,8.83369566 C10.0777875,8.94443478 9.5962875,9 9.0176625,9 L7.0785375,9 Z" id="Fill-4" fill-rule="nonzero"></path>
                    <polygon id="Fill-6" points="18.4108875 1.40509565 15.0107625 1.40509565 15.0107625 3.53183478 18.3118875 3.53183478 18.3118875 4.78713913 15.0107625 4.78713913 15.0107625 7.74461742 18.4108875 7.74461742 18.4108875 8.99992176 13.7308875 8.99992176 13.7308875 0.149791304 18.4108875 0.149791304"></polygon>
                    <polygon id="Fill-8" points="21.3717 0.149791304 21.3717 7.74461742 23.86545 7.74461742 23.86545 8.99992176 20.091825 8.99992176 20.091825 0.149791304"></polygon>
                </g>
            </g>
        </g>
    </g>
</svg>