<?xml version="1.0" encoding="utf-8"?>
<!-- Generator: Adobe Illustrator 22.0.0, SVG Export Plug-In . SVG Version: 6.00 Build 0)  -->
<svg version="1.1" id="Livello_1" xmlns="http://www.w3.org/2000/svg" xmlns:xlink="http://www.w3.org/1999/xlink" x="0px" y="0px"
	 viewBox="0 0 1920 1080" style="enable-background:new 0 0 1920 1080;" xml:space="preserve">
<style type="text/css">
	.st0{fill:none;stroke:url(#SVGID_1_);stroke-width:37;stroke-linecap:round;stroke-linejoin:round;stroke-miterlimit:10;}
	.st1{opacity:0.74;}
	.st2{fill:#FF0000;}
	.st3{fill:#D9D7D7;}
	.st4{fill:#FFFFFF;}
	.st5{fill:url(#SVGID_2_);}
	.st6{opacity:0.57;}
</style>
<linearGradient id="SVGID_1_" gradientUnits="userSpaceOnUse" x1="802" y1="537.5748" x2="1047.5" y2="537.5748">
	<stop  offset="0" style="stop-color:#D9D7D7"/>
	<stop  offset="0.4167" style="stop-color:#E2E1E1"/>
	<stop  offset="1" style="stop-color:#EBEBEB"/>
</linearGradient>
<polyline class="st0" points="1029,575.5 938.1,441.6 820.5,633.5 "/>
<g class="st1">
	<path class="st2" d="M835.8,636c-3.8,0.9-8.1,0.3-11.4-2c-1.7-1.1-3-2.7-4-4.5c-1-1.8-1.7-3.7-2.1-5.6c-0.4-2-0.6-3.9-0.7-5.9
		l0-1.5l0-1.5c0-1,0.1-2,0.2-2.9c0.4-3.9,1.1-7.8,2.2-11.6c-0.3,1.9-0.6,3.9-0.8,5.8c-0.1,1-0.3,1.9-0.3,2.9c-0.1,1-0.2,1.9-0.2,2.9
		c-0.2,3.9-0.2,7.8,0.7,11.5c0.8,3.7,2.5,7.4,5.6,9.7c1.5,1.1,3.3,1.9,5.2,2.3C831.9,636.2,833.9,636.2,835.8,636z"/>
</g>
<g>
	<path class="st3" d="M820.5,598l14.8-24.4l14.8-24.3l29.8-48.6l30-48.4l7.5-12.1l3.8-6l1.9-3c0.7-1,1.5-1.9,2.4-2.7
		c1.7-1.7,3.7-3.1,5.9-4.1c2.2-1,4.6-1.5,7-1.2c2.4,0.2,4.7,1.1,6.7,2.3c2,1.3,3.8,2.9,5.4,4.6c-1.6-1.7-3.5-3.3-5.5-4.5
		c-2-1.2-4.3-2-6.7-2.2c-2.4-0.2-4.7,0.3-6.8,1.3c-2.1,1-4,2.4-5.7,4.1c-0.8,0.8-1.6,1.7-2.3,2.7l-1.9,3l-3.7,6.1l-7.4,12.2
		l-29.8,48.6l-30,48.4l-15.1,24.2L820.5,598z"/>
</g>
<path class="st4" d="M1135.3,666.8c0,0-18.8,0.4-31.5,0.3c-12.7-0.1-41.8-24.3-41.7-33.8c7,0.1,29.8-0.3,42.5-0.2
	C1117.4,633.2,1134.5,644.9,1135.3,666.8z"/>
<linearGradient id="SVGID_2_" gradientUnits="userSpaceOnUse" x1="791.8592" y1="629" x2="1134.5" y2="629">
	<stop  offset="0" style="stop-color:#EBEBEB"/>
	<stop  offset="0.9989" style="stop-color:#FFFFFF"/>
</linearGradient>
<path class="st5" d="M1134.5,667c0,0-325,0-329,0c-7,0-19.5-11-10.5-28c12-21.6,30-48,30-48s-14.5,41.9,9.5,41.9s269,0,269,0
	S1133.5,638.6,1134.5,667z"/>
<g class="st6">
	<path class="st4" d="M835.5,633.5c-1.8,0-3.6-0.2-5.3-0.7c-1.7-0.6-3.3-1.5-4.7-2.6c-2.7-2.4-4.3-5.9-5-9.4
		c-0.1-0.4-0.2-0.9-0.2-1.3l-0.1-1.3c-0.1-0.9-0.2-1.8-0.1-2.7c0-0.9,0-1.8,0-2.7l0.3-2.7c0-0.4,0.1-0.9,0.1-1.3l0.2-1.3l0.5-2.6
		c0.4-1.7,0.9-3.5,1.3-5.2c-0.3,1.8-0.7,3.5-1,5.2l-0.4,2.6l-0.2,1.3c-0.1,0.4-0.1,0.9-0.1,1.3l-0.2,2.7c0,0.9,0,1.8,0,2.7
		c0,0.9,0.1,1.8,0.2,2.7l0.1,1.3c0.1,0.4,0.2,0.9,0.3,1.3c0.6,3.5,2.1,6.8,4.7,9.2c1.3,1.1,2.9,2.1,4.5,2.7
		C831.9,633.1,833.7,633.4,835.5,633.5z"/>
</g>
</svg>
