<?xml version="1.0" encoding="utf-8"?>
<!-- Generator: Adobe Illustrator 22.0.0, SVG Export Plug-In . SVG Version: 6.00 Build 0)  -->
<svg version="1.1" id="Livello_1" xmlns="http://www.w3.org/2000/svg" xmlns:xlink="http://www.w3.org/1999/xlink" x="0px" y="0px"
	 viewBox="0 0 1366 768" style="enable-background:new 0 0 1366 768;" xml:space="preserve">
<style type="text/css">
	.st0{opacity:0.7;fill:#6B5E9A;}
	.st1{fill:url(#SVGID_1_);}
	.st2{fill:url(#SVGID_2_);}
	.st3{fill:url(#SVGID_3_);}
	.st4{fill:#FFFFFF;}
	.st5{fill:#24126A;}
	.st6{fill:#5761D7;}
	.st7{fill:#BCBEFF;}
	.st8{opacity:0.11;}
	.st9{opacity:0.4;fill:#0B0244;}
	.st10{opacity:0.4;}
	.st11{clip-path:url(#SVGID_7_);}
	.st12{fill:url(#SVGID_8_);}
	.st13{fill:url(#SVGID_9_);}
	.st14{fill:url(#SVGID_10_);}
	.st15{clip-path:url(#SVGID_12_);}
	.st16{fill:url(#SVGID_13_);}
	.st17{fill:url(#SVGID_14_);}
	.st18{fill:url(#SVGID_15_);}
	.st19{fill:url(#SVGID_16_);}
	.st20{fill:url(#SVGID_17_);}
	.st21{fill:url(#SVGID_18_);}
</style>
<path class="st0" d="M628,331.9c-1.7,0-3.3-0.3-4.4-1l-35.7-20.6c-1.2-0.7-1.9-1.7-1.9-2.8c0-1.3,0.9-2.6,2.6-3.5l34.3-19.8
	c3-1.7,7.6-1.9,10.2-0.4l35.7,20.6c1.2,0.7,1.9,1.7,1.9,2.8c0,1.3-0.9,2.6-2.6,3.5l-34.3,19.8C632.1,331.4,630,331.9,628,331.9z
	 M628.6,283.5c-1.8,0-3.8,0.5-5.3,1.3L589,304.6c-1.4,0.8-2.2,1.8-2.2,2.8c0,0.8,0.5,1.5,1.5,2.1l35.7,20.6c2.4,1.4,6.6,1.2,9.4-0.4
	l34.3-19.8c1.4-0.8,2.2-1.8,2.2-2.8c0-0.8-0.5-1.5-1.5-2.1l-35.7-20.6C631.5,283.8,630.1,283.5,628.6,283.5z"/>
<path class="st0" d="M780.8,542.2c-0.8,0-1.6-0.2-2.3-0.5l-17.3-10c-0.7-0.4-1-0.9-1-1.5c0-0.7,0.5-1.4,1.4-1.9l16.6-9.6
	c1.5-0.9,3.8-1,5.1-0.2l17.3,10c0.7,0.4,1,0.9,1,1.5c0,0.7-0.5,1.4-1.4,1.9l-16.6,9.6C782.8,541.9,781.8,542.2,780.8,542.2z
	 M779,540.9c1.1,0.6,3.1,0.5,4.3-0.2l16.6-9.6c0.6-0.3,1-0.8,1-1.2c0-0.4-0.3-0.7-0.6-0.8l-17.3-10c-1.1-0.6-3.1-0.5-4.3,0.2
	l-16.6,9.6c-0.6,0.3-1,0.8-1,1.2c0,0.4,0.3,0.7,0.6,0.8L779,540.9z"/>
<g>
	<g>
		<g>
			<g>
				<g>
					
						<linearGradient id="SVGID_1_" gradientUnits="userSpaceOnUse" x1="-2180.9395" y1="3827.7141" x2="-1759.3342" y2="3636.6233" gradientTransform="matrix(1 7.000000e-04 -7.000000e-04 1 2573.825 -3298.4585)">
						<stop  offset="0" style="stop-color:#5761D7"/>
						<stop  offset="0.1779" style="stop-color:#5C66D9"/>
						<stop  offset="0.3876" style="stop-color:#6A73DF"/>
						<stop  offset="0.6134" style="stop-color:#8289E8"/>
						<stop  offset="0.849" style="stop-color:#A3A7F5"/>
						<stop  offset="1" style="stop-color:#BCBEFF"/>
					</linearGradient>
					<path class="st1" d="M691.3,197l6.6-3.8l0,0c0.5-0.3,1.2-0.2,1.9,0.2l109,63c1.6,0.9,3,3.5,3,5.7l-0.2,267.6
						c0,1.2-0.4,2-1.1,2.4l0,0l-6.6,3.8l-0.3-13.8l-98-56.7c-1.6-0.9-3-3.5-3-5.7l0.2-256.3c-0.3,0.8-0.4,1.4-0.5,1.4
						C702.3,204.9,691.3,197,691.3,197z"/>
					
						<linearGradient id="SVGID_2_" gradientUnits="userSpaceOnUse" x1="3301.2883" y1="3576.7996" x2="3301.2883" y2="3556.8838" gradientTransform="matrix(-1 -7.000000e-04 -7.000000e-04 1 4099.5718 -3297.8367)">
						<stop  offset="0" style="stop-color:#C0BFF6"/>
						<stop  offset="0.2938" style="stop-color:#C5C4F7"/>
						<stop  offset="0.6399" style="stop-color:#D3D2F9"/>
						<stop  offset="1" style="stop-color:#E9E9FD"/>
					</linearGradient>
					<path class="st2" d="M811.7,261.1l-26.9,15.5l-5-2.9l29.5-17C810.6,257.7,811.5,259.4,811.7,261.1z"/>
					
						<linearGradient id="SVGID_3_" gradientUnits="userSpaceOnUse" x1="3823.626" y1="5011.772" x2="3823.626" y2="4773.1348" gradientTransform="matrix(-0.8657 -0.5006 -8.000000e-04 1.1547 4061.7319 -3368.8208)">
						<stop  offset="0" style="stop-color:#C0BFF6"/>
						<stop  offset="0.2938" style="stop-color:#C5C4F7"/>
						<stop  offset="0.6399" style="stop-color:#D3D2F9"/>
						<stop  offset="1" style="stop-color:#E9E9FD"/>
					</linearGradient>
					<path class="st3" d="M693.1,472.7l109,63c1.6,0.9,3-0.1,3-2.2l0.2-267.6c0-2.2-1.3-4.7-3-5.7l-109-63c-1.6-0.9-3,0.1-3,2.2
						L690.2,467C690.2,469.2,691.5,471.7,693.1,472.7z"/>
					<path class="st4" d="M802.3,260.1l-109-63c-1-0.6-1.8-0.4-2.4,0.2c0.5-0.1,1,0,1.6,0.3l109,63c1.6,0.9,3,3.5,3,5.7L804.3,534
						c0,0.9-0.2,1.6-0.6,2c0.8-0.2,1.4-1.1,1.4-2.5l0.2-267.6C805.3,263.6,803.9,261.1,802.3,260.1z"/>
					<polygon class="st5" points="692.6,460.5 802.5,524 802.7,277.3 692.8,213.7 					"/>
					<path class="st6" d="M736.2,232.3l20.8,12.1c0.6,0.4,1.1,0.5,1.3-0.1c0.1-0.2,0.1-0.4,0.1-0.7l0,0c0-1.1-0.7-2.3-1.5-2.8
						l-21-12.1c-0.1,0-0.1-0.1-0.2-0.1c-0.7,0.2-0.8,0.3-0.8,1.3l0.1,0.3C735.1,231.2,735.4,231.8,736.2,232.3z"/>
					<path class="st7" d="M735.8,228.5c-0.1,0.2-0.1,0.4-0.1,0.7c0,1.1,0.7,2.3,1.5,2.8l21,12.1c0.1,0,0.1,0.1,0.2,0.1
						c-0.2,0.6-0.7,0.8-1.4,0.4l-21-12.1c-0.8-0.5-1.5-1.7-1.5-2.8C734.5,228.7,735.1,228.2,735.8,228.5z"/>
				</g>
			</g>
		</g>
		<g class="st8">
			<defs>
				<polygon id="SVGID_4_" class="st8" points="690.2,453.4 805.1,519.9 805.2,279.4 690.3,212.9 				"/>
			</defs>
			<clipPath id="SVGID_5_">
				<use xlink:href="#SVGID_4_"  style="overflow:visible;"/>
			</clipPath>
		</g>
	</g>
	<polygon class="st9" points="744.5,347.8 720.3,488.4 612.5,512.3 654.1,536.4 654.1,536.4 656,537.5 679.3,535.8 690.5,557.4 
		720.8,574.9 762.3,512.7 	"/>
	<g class="st10">
		<defs>
			<polygon id="SVGID_6_" class="st10" points="700.5,322.8 802.7,378.7 802.7,298.7 			"/>
		</defs>
		<clipPath id="SVGID_7_">
			<use xlink:href="#SVGID_6_"  style="overflow:visible;"/>
		</clipPath>
		<g class="st11">
			<polygon class="st5" points="638.4,458.7 824.8,298.7 654.6,415.7 			"/>
			<g>
				<linearGradient id="SVGID_8_" gradientUnits="userSpaceOnUse" x1="453.9236" y1="238.8261" x2="703.5198" y2="339.7547">
					<stop  offset="0" style="stop-color:#C0BFF6"/>
					<stop  offset="0.2938" style="stop-color:#C5C4F7"/>
					<stop  offset="0.6399" style="stop-color:#D3D2F9"/>
					<stop  offset="1" style="stop-color:#E9E9FD"/>
				</linearGradient>
				<polygon class="st12" points="824.8,298.7 622.1,396.9 555.5,358.5 				"/>
				<linearGradient id="SVGID_9_" gradientUnits="userSpaceOnUse" x1="807.1261" y1="509.2885" x2="738.1462" y2="353.7239">
					<stop  offset="0" style="stop-color:#C0BFF6"/>
					<stop  offset="0.2938" style="stop-color:#C5C4F7"/>
					<stop  offset="0.6399" style="stop-color:#D3D2F9"/>
					<stop  offset="1" style="stop-color:#E9E9FD"/>
				</linearGradient>
				<polygon class="st13" points="824.8,298.7 654.6,415.7 721.2,454.1 				"/>
				<linearGradient id="SVGID_10_" gradientUnits="userSpaceOnUse" x1="683.5585" y1="358.212" x2="869.9805" y2="437.6824">
					<stop  offset="0" style="stop-color:#C0BFF6"/>
					<stop  offset="0.2938" style="stop-color:#C5C4F7"/>
					<stop  offset="0.6399" style="stop-color:#D3D2F9"/>
					<stop  offset="1" style="stop-color:#E9E9FD"/>
				</linearGradient>
				<polygon class="st14" points="654.6,415.7 824.8,298.7 622.1,396.9 638.4,458.7 				"/>
			</g>
			<polygon class="st4" points="619.2,395.2 824.8,298.7 622.1,396.9 			"/>
			<polygon class="st4" points="654.6,415.7 824.8,298.7 657.3,417.2 			"/>
		</g>
	</g>
	<g>
		<defs>
			<polygon id="SVGID_11_" points="700.5,322.8 802.7,378.7 719.6,484 630.9,472.3 539.2,358 			"/>
		</defs>
		<clipPath id="SVGID_12_">
			<use xlink:href="#SVGID_11_"  style="overflow:visible;"/>
		</clipPath>
		<g class="st15">
			<polygon class="st5" points="638.4,458.7 824.8,298.7 654.6,415.7 			"/>
			<g>
				<linearGradient id="SVGID_13_" gradientUnits="userSpaceOnUse" x1="453.9236" y1="238.8261" x2="703.5198" y2="339.7547">
					<stop  offset="0" style="stop-color:#C0BFF6"/>
					<stop  offset="0.2938" style="stop-color:#C5C4F7"/>
					<stop  offset="0.6399" style="stop-color:#D3D2F9"/>
					<stop  offset="1" style="stop-color:#E9E9FD"/>
				</linearGradient>
				<polygon class="st16" points="824.8,298.7 622.1,396.9 555.5,358.5 				"/>
				<linearGradient id="SVGID_14_" gradientUnits="userSpaceOnUse" x1="807.1261" y1="509.2885" x2="738.1462" y2="353.7239">
					<stop  offset="0" style="stop-color:#C0BFF6"/>
					<stop  offset="0.2938" style="stop-color:#C5C4F7"/>
					<stop  offset="0.6399" style="stop-color:#D3D2F9"/>
					<stop  offset="1" style="stop-color:#E9E9FD"/>
				</linearGradient>
				<polygon class="st17" points="824.8,298.7 654.6,415.7 721.2,454.1 				"/>
				<polygon class="st4" points="820.1,301.9 720.7,451.1 656.8,414.2 654.6,415.7 721.2,454.1 824.8,298.7 				"/>
				<linearGradient id="SVGID_15_" gradientUnits="userSpaceOnUse" x1="683.5585" y1="358.212" x2="869.9805" y2="437.6824">
					<stop  offset="0" style="stop-color:#C0BFF6"/>
					<stop  offset="0.2938" style="stop-color:#C5C4F7"/>
					<stop  offset="0.6399" style="stop-color:#D3D2F9"/>
					<stop  offset="1" style="stop-color:#E9E9FD"/>
				</linearGradient>
				<polygon class="st18" points="654.6,415.7 824.8,298.7 622.1,396.9 638.4,458.7 				"/>
			</g>
			<polygon class="st4" points="619.2,395.2 824.8,298.7 622.1,396.9 			"/>
			<polygon class="st4" points="654.6,415.7 824.8,298.7 657.3,417.2 			"/>
		</g>
	</g>
</g>
<g>
	<polygon class="st9" points="615.4,553.4 588.6,537.9 615.4,522.5 642.1,537.9 	"/>
	
		<linearGradient id="SVGID_16_" gradientUnits="userSpaceOnUse" x1="609.3304" y1="538.358" x2="538.9418" y2="559.7572" gradientTransform="matrix(0.866 0.5 0 1.1547 98.2248 -407.4149)">
		<stop  offset="0" style="stop-color:#BCBEFF"/>
		<stop  offset="0.1473" style="stop-color:#B5B8FC"/>
		<stop  offset="0.3563" style="stop-color:#A3A7F5"/>
		<stop  offset="0.6021" style="stop-color:#848BE9"/>
		<stop  offset="0.874" style="stop-color:#5A64D8"/>
		<stop  offset="0.8925" style="stop-color:#5761D7"/>
	</linearGradient>
	<polygon class="st19" points="615.4,537.9 588.6,522.5 588.6,491.6 615.4,507.1 	"/>
	
		<linearGradient id="SVGID_17_" gradientUnits="userSpaceOnUse" x1="637.1705" y1="435.0555" x2="582.9957" y2="410.7802" gradientTransform="matrix(0.866 -0.5 0 1.1547 99.9581 331.4709)">
		<stop  offset="0" style="stop-color:#E9E9FD"/>
		<stop  offset="0.3601" style="stop-color:#D3D2F9"/>
		<stop  offset="0.7062" style="stop-color:#C5C4F7"/>
		<stop  offset="1" style="stop-color:#C0BFF6"/>
	</linearGradient>
	<polygon class="st20" points="642.1,522.5 615.4,537.9 615.4,507.1 642.1,491.6 	"/>
	
		<linearGradient id="SVGID_18_" gradientUnits="userSpaceOnUse" x1="867.1169" y1="539.7322" x2="931.6469" y2="507.3299" gradientTransform="matrix(0.866 0.5 -1 0.5774 371.5242 -258.595)">
		<stop  offset="0" style="stop-color:#E9E9FD"/>
		<stop  offset="0.536" style="stop-color:#D1D0F9"/>
		<stop  offset="1" style="stop-color:#C0BFF6"/>
	</linearGradient>
	<polygon class="st21" points="615.4,507.1 588.6,491.6 615.4,476.2 642.1,491.6 	"/>
	<polygon class="st4" points="615.4,505.9 589.6,491.1 588.6,491.6 615.4,507.1 642.1,491.6 641.1,491.1 	"/>
</g>
</svg>
