<?xml version="1.0" encoding="UTF-8"?>
<svg width="2px" height="8px" viewBox="0 0 2 8" version="1.1" xmlns="http://www.w3.org/2000/svg" xmlns:xlink="http://www.w3.org/1999/xlink">
    <!-- Generator: Sketch 52.6 (67491) - http://www.bohemiancoding.com/sketch -->
    <title>noun_more_1590820</title>
    <desc>Created with Sketch.</desc>
    <g id="Page-1" stroke="none" stroke-width="1" fill="none" fill-rule="evenodd">
        <g id="Elenco-studenti-" transform="translate(-94.000000, -753.000000)" fill="#000000" fill-rule="nonzero">
            <g id="01" transform="translate(1.000000, -10.000000)">
                <g id="Table" transform="translate(93.000000, 324.000000)">
                    <g id="noun_more_1590820" transform="translate(0.000000, 439.000000)">
                        <path d="M1,2 C0.4477153,2 0,1.5522847 0,1 C0,0.4477153 0.4477153,0 1,0 C1.5522847,0 2,0.4477153 2,1 C2,1.5522847 1.5522847,2 1,2 Z M2,4 C2,3.4477153 1.5522847,3 1,3 C0.4477153,3 0,3.4477153 0,4 C0,4.5522847 0.4477153,5 1,5 C1.5522847,5 2,4.5522847 2,4 Z M2,7 C2,6.4477148 1.5522847,6 1,6 C0.4477153,6 0,6.4477148 0,7 C0,7.5522852 0.4477153,8 1,8 C1.5522847,8 2,7.5522852 2,7 Z" id="Shape"></path>
                    </g>
                </g>
            </g>
        </g>
    </g>
</svg>