<?xml version="1.0" encoding="UTF-8"?>
<svg width="18px" height="18px" viewBox="0 0 18 18" version="1.1" xmlns="http://www.w3.org/2000/svg" xmlns:xlink="http://www.w3.org/1999/xlink">
    <!-- Generator: Sketch 52.6 (67491) - http://www.bohemiancoding.com/sketch -->
    <title>Group</title>
    <desc>Created with Sketch.</desc>
    <defs>
        <path d="M12.515625,11.015625 L17.484375,15.984375 L15.984375,17.484375 L11.015625,12.515625 L11.015625,11.71875 L10.734375,11.4375 C9.51561891,12.4687552 8.10938297,12.984375 6.515625,12.984375 C4.70311594,12.984375 3.16406883,12.3515688 1.8984375,11.0859375 C0.632806172,9.82030617 0,8.28907148 0,6.4921875 C0,4.69530352 0.632806172,3.16406883 1.8984375,1.8984375 C3.16406883,0.632806172 4.69530352,0 6.4921875,0 C8.28907148,0 9.82030617,0.632806172 11.0859375,1.8984375 C12.3515688,3.16406883 12.984375,4.70311594 12.984375,6.515625 C12.984375,8.10938297 12.4687552,9.51561891 11.4375,10.734375 L11.71875,11.015625 L12.515625,11.015625 Z M6.515625,11.015625 C7.76563125,11.015625 8.82812063,10.5781294 9.703125,9.703125 C10.5781294,8.82812062 11.015625,7.76563125 11.015625,6.515625 C11.015625,5.26561875 10.5781294,4.20312938 9.703125,3.328125 C8.82812063,2.45312062 7.76563125,2.015625 6.515625,2.015625 C5.26561875,2.015625 4.20312937,2.45312062 3.328125,3.328125 C2.45312063,4.20312938 2.015625,5.26561875 2.015625,6.515625 C2.015625,7.76563125 2.45312063,8.82812062 3.328125,9.703125 C4.20312937,10.5781294 5.26561875,11.015625 6.515625,11.015625 Z" id="path-1"></path>
    </defs>
    <g id="Symbols" stroke="none" stroke-width="1" fill="none" fill-rule="evenodd">
        <g id="Icon/Search" transform="translate(-4.000000, -4.000000)">
            <g id="Group" transform="translate(4.000000, 4.000000)">
                <mask id="mask-2" fill="white">
                    <use xlink:href="#path-1"></use>
                </mask>
                <use id="Mask" fill="#333333" xlink:href="#path-1"></use>
                <g id="🎨icon-color/accent" mask="url(#mask-2)" fill="#4B74FF">
                    <g transform="translate(-27.000000, -27.000000)" id="Icon-Shade">
                        <rect x="0" y="0" width="72" height="72"></rect>
                    </g>
                </g>
            </g>
        </g>
    </g>
</svg>