<?xml version="1.0" encoding="UTF-8"?>
<svg width="34px" height="42px" viewBox="0 0 34 42" version="1.1" xmlns="http://www.w3.org/2000/svg" xmlns:xlink="http://www.w3.org/1999/xlink">
    <!-- Generator: Sketch 52.6 (67491) - http://www.bohemiancoding.com/sketch -->
    <title>noun_Trash_1392360</title>
    <desc>Created with Sketch.</desc>
    <g id="Wireframe" stroke="none" stroke-width="1" fill="none" fill-rule="evenodd">
        <g id="LOGIN-01" transform="translate(-117.000000, -207.000000)">
            <g id="noun_Trash_1392360" transform="translate(109.000000, 203.000000)">
                <g id="Group">
                    <g>
                        <rect id="Rectangle" x="0" y="0" width="50" height="50"></rect>
                        <path d="M10.4166667,12.5 L11.94321,43.452381 C11.94321,43.452381 12.4922071,45.8333333 14.5616378,45.8333333 L24.1625396,45.8333333 L25.9081581,45.8333333 L35.5090598,45.8333333 C37.5793633,45.8333333 38.1283604,43.452381 38.1283604,43.452381 L39.5833333,12.5 L10.4166667,12.5 Z M16.6816564,6.25 C16.770476,5.37113871 17.3610966,4.5829014 18.2534348,4.28545533 C18.4894683,4.2067775 18.7366424,4.16666667 18.9854435,4.16666667 L31.0145565,4.16666667 C32.2148685,4.16666667 33.2018019,5.08024938 33.3179419,6.25 L39.3518519,6.25 C40.6302888,6.25 41.6666667,7.2863779 41.6666667,8.56481481 L41.6666667,10.4166667 L8.33333333,10.4166667 L8.33333333,8.56481481 C8.33333333,7.2863779 9.36971123,6.25 10.6481481,6.25 L16.6816564,6.25 Z M32.2916667,16.6666667 C32.3055365,16.6666667 32.3194048,16.6669555 32.3332625,16.6675329 C32.8846092,16.6905056 33.312941,17.1560836 33.2899681,17.7074303 L32.3350319,40.6259031 C32.3107952,41.2075794 31.832181,41.6666667 31.25,41.6666667 C31.2361302,41.6666667 31.2222619,41.6663779 31.2084042,41.6658004 C30.6570575,41.6428277 30.2287256,41.1772498 30.2516985,40.6259031 L31.2066348,17.7074303 C31.2308715,17.1257539 31.7094856,16.6666667 32.2916667,16.6666667 Z M19.7483087,40.625729 C19.7488859,40.6395848 19.7491745,40.6534508 19.7491745,40.6673185 C19.7491745,41.2192433 19.3017511,41.6666667 18.7498264,41.6666667 C18.1675506,41.6666667 17.6888607,41.2075004 17.6646283,40.625729 L16.7100246,17.7076043 C16.7094475,17.6937486 16.7091588,17.6798824 16.7091588,17.6660147 C16.7091588,17.11409 17.1565822,16.6666667 17.7085069,16.6666667 C18.2907827,16.6666667 18.7694727,17.1258329 18.7937051,17.7076043 L19.7483087,40.625729 Z M25,16.6666667 C25.5752967,16.6666667 26.0416667,17.1330367 26.0416667,17.7083333 L26.0416667,40.625 C26.0416667,41.2002967 25.5752967,41.6666667 25,41.6666667 C24.4247033,41.6666667 23.9583333,41.2002967 23.9583333,40.625 L23.9583333,17.7083333 C23.9583333,17.1330367 24.4247033,16.6666667 25,16.6666667 Z" id="Shape" fill="#FFFFFF" fill-rule="nonzero"></path>
                    </g>
                </g>
            </g>
        </g>
    </g>
</svg>
