<?xml version="1.0" encoding="UTF-8"?>
<svg width="300px" height="170px" viewBox="0 0 300 170" version="1.1" xmlns="http://www.w3.org/2000/svg" xmlns:xlink="http://www.w3.org/1999/xlink">
    <!-- Generator: Sketch 52.6 (67491) - http://www.bohemiancoding.com/sketch -->
    <title>836 copy</title>
    <desc>Created with Sketch.</desc>
    <defs>
        <linearGradient x1="97.7302006%" y1="97.1947175%" x2="2.37627362%" y2="12.7104744%" id="linearGradient-1">
            <stop stop-color="#62BCBC" offset="0%"></stop>
            <stop stop-color="#3C989B" offset="100%"></stop>
        </linearGradient>
        <rect id="path-2" x="0" y="0" width="300" height="170"></rect>
        <path d="M54.8819905,2.58362908 C59.5937591,-0.0502425999 66.7174491,-0.327865171 70.7925818,1.96461448 L128.003599,34.1443556 C129.160817,32.9134119 131.589317,30.3130353 131.589317,30.3130353 L131.561465,38.312559 L131.560801,38.3119149 C131.646349,40.1148512 130.324667,42.0363086 127.664059,43.5229743 L8.95998663,109.877345 C6.50098061,111.251931 3.38809649,111.977873 0.392592117,112.03971 L0.505329718,32.9791138 L54.8819905,2.58362908" id="path-4"></path>
        <linearGradient x1="0%" y1="49.9997752%" x2="105.817474%" y2="49.9997752%" id="linearGradient-6">
            <stop stop-color="#D4EAF2" offset="0%"></stop>
            <stop stop-color="#83B0D1" offset="100%"></stop>
        </linearGradient>
        <path d="M187.991324,33.0157482 L132.248176,1.46704979 C129.22025,-0.246884263 123.926849,-0.0401753918 120.424877,1.93036278 L3.43567196,67.7324707 C-0.066300115,69.7023609 -0.450177781,72.6889476 2.57708547,74.4028817 L58.3208961,105.952228 C61.3488224,107.666162 66.6415605,107.458805 70.1441956,105.489563 L187.1334,39.6861592 C190.635373,37.7162691 191.01925,34.7303303 187.991324,33.0157482" id="path-7"></path>
        <radialGradient cx="99.6061403%" cy="32.7370806%" fx="99.6061403%" fy="32.7370806%" r="126.581669%" gradientTransform="translate(0.996061,0.327371),scale(0.563638,1.000000),translate(-0.996061,-0.327371)" id="radialGradient-9">
            <stop stop-color="#263765" offset="0%"></stop>
            <stop stop-color="#1F2A4C" offset="100%"></stop>
        </radialGradient>
        <path d="M48.7516536,27.3646292 C37.7169503,33.5955956 19.8264838,33.5949487 8.79244201,27.3639823 C-2.24226122,21.1330159 -2.24226122,11.031631 8.79178058,4.8006646 C19.8258224,-1.43030177 37.7162889,-1.42965487 48.7509922,4.8013115 C59.785034,11.0322779 59.785034,21.1336628 48.7516536,27.3646292" id="path-10"></path>
        <linearGradient x1="0.000438928332%" y1="50%" x2="100.00079%" y2="50%" id="linearGradient-12">
            <stop stop-color="#DA3685" offset="0%"></stop>
            <stop stop-color="#BC187A" offset="100%"></stop>
        </linearGradient>
    </defs>
    <g id="Page-1" stroke="none" stroke-width="1" fill="none" fill-rule="evenodd">
        <g id="836-copy">
            <mask id="mask-3" fill="white">
                <use xlink:href="#path-2"></use>
            </mask>
            <use id="Mask" fill="url(#linearGradient-1)" fill-rule="nonzero" xlink:href="#path-2"></use>
            <g id="836" opacity="0.668271019" mask="url(#mask-3)">
                <g transform="translate(21.000000, 44.000000)">
                    <path d="M285.404905,44.380531 L285.404905,44.3798951 L284.738646,44.0097877 L284.672483,43.9735401 L265.438304,33.3002046 L264.760136,32.9237381 L264.705882,32.8938497 L284.67116,21.8141593 L305.370844,33.3008406 L285.404905,44.380531 M284.67116,22.6275051 L265.438304,33.3002046 L284.672483,43.9735401 L303.905339,33.3008406 L284.67116,22.6275051" id="Fill-3" fill="#D1E9F2"></path>
                    <path d="M244.739618,44.380531 L254.356533,39.0443488 L244.74028,44.380531 M243.274089,44.380531 L233.657836,39.0443488 L243.274751,44.380531 L243.274089,44.380531 M244.007185,43.9741646 L236.437379,39.7731373 L244.007185,43.9741646 L253.6241,38.6373465 L244.007185,43.9741646 M264.705882,33.3005283 L264.156061,32.9959125 L264.027703,32.9240512 L264.705882,33.3005283 M263.240353,33.3005283 L244.007185,22.627528 L224.774016,33.3005283 L224.040921,32.8941619 L244.007185,21.8141593 L263.973449,32.8941619 L263.240353,33.3005283" id="Fill-4" fill="#D1E9F2"></path>
                    <path d="M264.688792,55.6637168 L274.305551,50.3268987 L264.688792,55.6637168 M263.956371,55.2573504 L263.956371,55.2567145 L244.722192,44.5837142 L244.043362,44.207237 L243.98977,44.1773478 L263.222625,33.5037115 L263.955709,33.0973451 L264.009962,33.1272344 L264.138318,33.1990957 L264.688131,33.5037115 L283.921648,44.1773478 L283.189226,44.5837142 L263.955709,33.9107139 L244.722192,44.5837142 L263.956371,55.2567145 L275.619544,48.7847414 L263.956371,55.2573504 M284.654731,44.5837142 L284.104919,44.2790984 L283.988472,44.2135964 L284.654731,44.5837142" id="Fill-5" fill="#D1E9F2"></path>
                    <path d="M285.404905,66.9469027 L284.763126,66.5907756 L284.671821,66.5399003 L265.438304,55.8669 L264.772045,55.4967823 L264.705882,55.4605336 L283.938738,44.7868974 L284.671821,44.380531 L284.737984,44.4167796 L284.854431,44.4822816 L285.404243,44.7868974 L285.404243,44.7875333 L305.370844,55.8669 L285.404905,66.9469027 M265.438304,55.8669 L284.671821,66.5399003 L303.905339,55.8669 L284.671821,45.1938997 L265.438304,55.8669" id="Fill-6" fill="#D1E9F2"></path>
                    <path d="M204.824528,44.380531 L210.769453,41.0787245 L204.824528,44.380531 M204.092072,43.9741646 L184.875017,33.3011643 L184.875017,33.3005283 L184.233788,32.9444013 L184.143223,32.8941619 L204.092072,21.8141593 L224.040921,32.8947979 L223.309126,33.3011643 L204.092072,22.627528 L184.875017,33.3005283 L204.092733,43.9741646 L216.369303,37.1556036 L204.092733,43.9741646" id="Fill-7" fill="#D1E9F2"></path>
                    <path d="M224.791106,55.6637168 L233.425629,50.8724012 L224.791106,55.6637168 M223.325553,55.6637168 L213.708482,50.3267483 L223.325553,55.6637168 M224.057999,55.257339 L213.245327,49.2564292 L224.057999,55.256703 L236.376584,48.4214149 L224.05866,55.257339 L224.057999,55.256703 M244.757033,44.5840379 L244.207203,44.2794135 L244.078181,44.2075501 L244.757033,44.5840379 M243.292142,44.5840379 L224.057999,33.9107368 L204.824517,44.5834019 L204.092072,44.1770241 L224.057999,33.0973451 L224.791106,33.503723 L244.024588,44.17766 L243.29148,44.5840379" id="Fill-8" fill="#D1E9F2"></path>
                    <path d="M244.740605,66.9469027 L254.356702,61.6100845 L244.740605,66.9469027 M243.274438,66.9469027 L230.370713,59.7855694 L243.2751,66.9469027 L243.274438,66.9469027 M244.007521,66.5399003 L235.624037,61.8873549 L244.007521,66.5399003 L254.718612,60.5957584 L244.007521,66.5399003 M264.705882,55.8669 L264.15607,55.5622842 L264.039623,55.4967823 L264.705882,55.8669 M263.240377,55.8669 L244.00686,45.1938997 L224.774004,55.8662641 L224.040921,55.4592617 L243.273776,44.7868974 L244.00686,44.380531 L244.060452,44.4104202 L244.189469,44.4822816 L244.739282,44.7868974 L263.97346,55.4605336 L263.240377,55.8669" id="Fill-9" fill="#D1E9F2"></path>
                    <path d="M264.688792,78.2300885 L271.238245,74.5957872 L264.688792,78.2300885 M263.956371,77.8230976 L244.722192,67.1503981 L244.722853,67.1503981 L244.067842,66.78665 L243.98977,66.7434072 L263.222625,56.0707077 L263.955709,55.6637168 L263.955709,55.6643527 L264.021872,55.7006004 L264.138318,55.7661005 L264.688131,56.0707077 L283.921648,66.7434072 L283.189226,67.1503981 L263.955709,56.4776985 L244.722853,67.1503981 L263.956371,77.8230976 L272.376906,73.1503337 L263.956371,77.8230976 M284.654731,67.1503981 L284.104919,66.8451549 L284.012953,66.7942811 L284.654731,67.1503981" id="Fill-10" fill="#D1E9F2"></path>
                    <path d="M285.404905,89.5132743 L284.787606,89.1705117 L284.672483,89.1062835 L264.796525,78.0774669 L264.705882,78.0265931 L283.938738,67.3538935 L284.67116,66.9469027 L284.762464,66.9977765 L284.854431,67.0486504 L285.404243,67.3538935 L305.370844,78.4335839 L285.404905,89.5132743 M265.438304,78.4335839 L284.672483,89.1062835 L303.905339,78.4335839 L284.67116,67.7608844 L265.438304,78.4335839" id="Fill-11" fill="#D1E9F2"></path>
                    <path d="M164.944222,44.380531 L174.561137,39.0443488 L164.944884,44.380531 M164.211788,43.9741646 L144.977296,33.3011643 L144.977958,33.3005283 L144.322936,32.9374059 L144.245524,32.8941619 L164.211127,21.8141593 L164.393739,21.9159099 L184.178052,32.8941619 L183.444957,33.3005283 L164.211127,22.627528 L144.977958,33.3005283 L164.211788,43.9741646 L175.024946,37.9734239 L164.211788,43.9741646 M184.910486,33.3011643 L184.360664,32.9959125 L184.268697,32.9444013 L184.910486,33.3005283" id="Fill-12" fill="#D1E9F2"></path>
                    <path d="M184.875679,55.6637168 L194.484206,50.3268987 L184.875679,55.6637168 M184.143884,55.2573504 L184.143884,55.2567145 L164.284939,44.2275871 L164.194373,44.1773478 L183.410767,33.5037115 L184.143223,33.0973451 L184.233788,33.1475845 L184.325675,33.1990957 L184.875017,33.5043475 L204.092072,44.1773478 L203.360277,44.5837142 L184.143223,33.9107139 L164.926168,44.5837142 L184.143884,55.2567145 L194.946949,49.2566097 L184.143884,55.2573504" id="Fill-13" fill="#D1E9F2"></path>
                    <path d="M204.82487,66.9469027 L216.832588,60.2771519 L204.82487,66.9469027 M204.092402,66.5399003 L184.87503,55.8669 L184.258249,55.5241277 L184.143223,55.4605336 L203.359934,44.7868974 L204.092402,44.380531 L224.040921,55.4605336 L223.309114,55.8669 L204.092402,45.1938997 L184.87503,55.8669 L204.093063,66.5399003 L210.375895,63.0498553 L204.093063,66.5399003" id="Fill-14" fill="#D1E9F2"></path>
                    <path d="M224.790769,78.2300885 L234.407023,72.8940567 L224.790769,78.2300885 M223.324578,78.2300885 L213.708325,72.8934208 L223.32524,78.2300885 L223.324578,78.2300885 M224.057674,77.8230976 L216.487868,73.6228247 L224.057674,77.8230976 L231.003554,73.9687669 L224.057674,77.8230976 M244.756372,67.151034 L244.20655,66.8457909 L244.102011,66.7872859 L244.757033,67.151034 M243.291504,67.151034 L224.057012,56.4776985 L204.824505,67.1503981 L204.092072,66.7434072 L223.324578,56.0707077 L224.057012,55.6637168 L224.790108,56.0707077 L244.023938,66.7440431 L243.290842,67.151034" id="Fill-15" fill="#D1E9F2"></path>
                    <path d="M244.739943,89.5132743 L254.356702,84.1766066 L244.740605,89.5132743 M243.274438,89.5132743 L236.944646,86.0004344 L243.2751,89.5132743 L243.274438,89.5132743 M244.007521,89.1062835 L231.103796,81.945152 L244.007521,89.1062835 L253.62428,83.7696157 L244.007521,89.1062835 M264.705882,78.4335839 L264.15607,78.1283408 L264.064103,78.0774669 L264.705882,78.4335839 M263.240377,78.4335839 L244.00686,67.7608844 L224.774004,78.432948 L224.040921,78.0259571 L243.273776,67.3538935 L244.00686,66.9469027 L244.084932,66.9901454 L244.189469,67.0486504 L244.739282,67.3538935 L263.97346,78.0265931 L263.240377,78.4335839" id="Fill-16" fill="#D1E9F2"></path>
                    <path d="M264.688792,100.79646 L274.305551,95.4597924 L264.688792,100.79646 M263.956371,100.389469 L244.722192,89.7167698 L244.089014,89.3651042 L243.98977,89.3097789 L263.222625,78.6370794 L263.955709,78.2300885 L264.046352,78.2809624 L264.138318,78.3318362 L264.688131,78.6370794 L283.921648,89.3097789 L283.189226,89.7167698 L263.955709,79.0434343 L244.722192,89.7167698 L263.956371,100.389469 L274.76869,94.3888977 L263.956371,100.389469 M284.654731,89.7167698 L284.104919,89.4115266 L284.037433,89.3740071 L284.654731,89.7167698" id="Fill-17" fill="#D1E9F2"></path>
                    <path d="M285.404905,112.079646 L285.404905,112.07901 L284.737984,111.709539 L284.671821,111.672655 L265.438304,100.999956 L264.819682,100.656557 L264.705882,100.592965 L283.938738,89.9202652 L284.671821,89.5132743 L284.786945,89.5775026 L284.854431,89.6150221 L285.404243,89.9202652 L305.370844,100.999956 L285.404905,112.079646 M265.438304,100.999956 L284.671821,111.672655 L303.905339,100.999956 L284.671821,90.3266201 L265.438304,100.999956" id="Fill-18" fill="#D1E9F2"></path>
                    <path d="M125.046849,44.380531 L137.364372,37.5454355 L125.046849,44.380531 M124.313765,43.9741646 L105.080248,33.3005283 L104.442439,32.9469451 L104.347826,32.8941619 L124.313765,21.8141593 L144.279704,32.8947979 L143.547282,33.3011643 L124.313765,22.627528 L105.080248,33.3005283 L124.314427,43.9741646 L130.264445,40.6723581 L124.314427,43.9741646 M145.012126,33.3018002 L144.462975,32.9965485 L144.357776,32.9380419 L145.012788,33.3011643" id="Fill-19" fill="#D1E9F2"></path>
                    <path d="M144.996035,55.6637168 L157.313758,48.8284287 L144.996035,55.6637168 M144.262939,55.257339 L125.029109,44.5834019 L124.362839,44.2139097 L124.296675,44.1770241 L144.262277,33.0973451 L144.262939,33.0973451 L144.340351,33.1405903 L144.445551,33.1990986 L144.994711,33.5043589 L164.229203,44.17766 L163.496108,44.5840379 L144.262277,33.9107368 L125.029109,44.5834019 L144.262939,55.257339 L150.213715,51.9548035 L144.263601,55.257339 L144.262939,55.257339 M164.961637,44.5840379 L164.411815,44.2794135 L164.319848,44.2279008 L164.961637,44.5840379" id="Fill-20" fill="#D1E9F2"></path>
                    <path d="M164.945208,66.9469027 L177.628611,59.908306 L164.945208,66.9469027 M163.479042,66.9469027 L153.862283,61.6100845 L163.479703,66.9469027 L163.479042,66.9469027 M164.212125,66.5399003 L154.595366,61.2030822 L164.212125,66.5399003 L169.742671,63.4708483 L164.212125,66.5399003 M184.910486,55.8669 L184.360673,55.5622842 L184.293187,55.5241277 L184.910486,55.8669 M183.444981,55.8669 L164.211463,45.1938997 L144.978608,55.8662641 L144.245524,55.4598977 L163.47838,44.7868974 L164.211463,44.380531 L164.302106,44.4307703 L164.394073,44.4822816 L164.943885,44.7868974 L184.177402,55.4605336 L183.444981,55.8669" id="Fill-21" fill="#D1E9F2"></path>
                    <path d="M184.87634,78.2300885 L184.875679,78.2300885 L193.289007,73.5573246 L184.87634,78.2300885 M184.143884,77.8230976 L164.926168,67.1503981 L164.926829,67.1503981 L164.244614,66.7713878 L164.194373,66.7434072 L183.410767,56.0707077 L184.143223,55.6637168 L184.143223,55.6643527 L184.258247,55.7279451 L184.325675,55.7661005 L184.875017,56.0707077 L204.092072,66.7434072 L203.360277,67.1503981 L184.143223,56.4776985 L164.926829,67.1503981 L184.143884,77.8230976 L193.75175,72.4870658 L184.143884,77.8230976" id="Fill-22" fill="#D1E9F2"></path>
                    <path d="M204.824209,89.5132743 L215.628114,83.5127028 L204.824209,89.5132743 M203.359934,89.5132743 L193.751248,84.1766066 L203.359934,89.5132743 M204.091741,89.1062835 L192.438358,82.6338569 L204.092402,89.1062835 L213.700427,83.7696157 L204.092402,89.1062835 M184.87503,78.4335839 L184.143223,78.0265931 L203.359934,67.3538935 L204.092402,66.9469027 L204.824209,67.3538935 L224.040921,78.0265931 L223.309114,78.4335839 L204.092402,67.7608844 L184.87503,78.4335839" id="Fill-23" fill="#D1E9F2"></path>
                    <path d="M224.791431,100.795824 L238.074485,93.425474 L224.791431,100.79646 M224.058336,100.389469 L204.824505,89.7167698 L204.174115,89.3555654 L204.092072,89.3097789 L223.324578,78.6370794 L223.32524,78.6370794 L224.057674,78.2300885 L224.790769,78.6370794 L244.024599,89.3104148 L243.291504,89.7174057 L224.057674,79.0434343 L204.824505,89.7167698 L224.058336,100.389469 L233.675251,95.0534375 L224.058997,100.389469 L224.058336,100.389469 M244.757033,89.7174057 L244.207212,89.4121625 L244.123845,89.3657401 L244.757033,89.7174057" id="Fill-24" fill="#D1E9F2"></path>
                    <path d="M244.74028,112.079646 L254.356533,106.743313 L244.74028,112.079646 M244.007185,111.673268 L224.772693,100.999967 L224.773354,100.999331 L224.153399,100.655277 L224.040921,100.592953 L243.273428,89.9202881 L244.006523,89.5132743 L244.105769,89.5686028 L244.189135,89.6150278 L244.738957,89.9202881 L263.972787,100.593589 L263.240353,100.999967 L244.006523,90.326666 L224.773354,100.999331 L244.007185,111.673268 L252.542982,106.936645 L244.007185,111.673268 M264.705882,101.000603 L264.08725,100.657185 L264.705882,101.000603" id="Fill-25" fill="#D1E9F2"></path>
                    <path d="M264.688792,123.362832 L274.305551,118.02665 L264.688792,123.362832 M263.223287,123.362832 L250.319562,116.202135 L263.223287,123.362832 M263.956371,122.956465 L257.626578,119.443527 L263.956371,122.956465 L271.526053,118.755438 L263.956371,122.956465 M284.654731,112.282829 L283.987811,111.913347 L284.654731,112.282829 M283.189226,112.282829 L263.955709,101.609829 L244.722192,112.282193 L243.98977,111.875827 L263.222625,101.202827 L263.955709,100.79646 L264.069509,100.860054 L264.688131,101.203463 L283.921648,111.876463 L283.189226,112.282829" id="Fill-26" fill="#D1E9F2"></path>
                    <path d="M285.404905,134.646018 L284.737984,134.2759 L284.671821,134.239015 L264.754181,123.186358 L264.705882,123.159649 L284.67116,112.079646 L284.737323,112.116531 L285.404243,112.486012 L285.404243,112.486648 L305.370844,123.566015 L285.404905,134.646018 M265.438304,123.566015 L284.671821,134.239015 L303.905339,123.566015 L284.67116,112.893015 L265.438304,123.566015" id="Fill-27" fill="#D1E9F2"></path>
                    <path d="M85.1330086,44.380531 L93.5599691,39.7076354 L85.1330086,44.380531 M83.6656076,44.380531 L63.6828645,33.2998924 L84.3986459,21.8141593 L84.5814088,21.9159099 L104.382051,32.8941619 L103.648351,33.3005283 L84.3986459,22.627528 L65.1496032,33.2998924 L84.3993081,43.9741646 L94.0241605,38.6373465 L84.3993081,43.9741646 L83.6656076,44.380531 M105.11509,33.3005283 L104.564814,32.9959125 L104.476744,32.9469451 L105.11509,33.3005283" id="Fill-28" fill="#D1E9F2"></path>
                    <path d="M105.098,55.6637168 L114.714758,50.3275346 L105.098661,55.6637168 M104.365578,55.2573504 L84.5815862,44.2790984 L84.398977,44.1773478 L103.631833,33.5037115 L104.364916,33.0973451 L104.459529,33.1501282 L104.547525,33.1990957 L105.097338,33.5037115 L124.330855,44.1773478 L123.598433,44.5837142 L104.364916,33.9107139 L85.1320605,44.5837142 L104.365578,55.2573504 L113.981675,49.9205323 L104.365578,55.2573504 M125.063939,44.5837142 L124.514126,44.2790984 L124.39768,44.2142324 L125.063939,44.5837142" id="Fill-29" fill="#D1E9F2"></path>
                    <path d="M125.029131,66.9469027 L134.637658,61.6100845 L125.029131,66.9469027 M124.296675,66.5399003 L105.079621,55.8669 L104.413932,55.4967823 L104.347826,55.4605336 L123.564219,44.7868974 L124.296675,44.380531 L124.479128,44.4822816 L125.02847,44.7868974 L144.245524,55.4605336 L143.513729,55.8669 L124.296675,45.1938997 L105.079621,55.8669 L124.297336,66.5399003 L136.93088,59.5235616 L124.297336,66.5399003" id="Fill-30" fill="#D1E9F2"></path>
                    <path d="M144.995698,78.2300885 L151.941465,74.3756492 L144.995698,78.2300885 M144.263276,77.8230862 L144.262614,77.8230862 L124.387318,66.7939588 L124.296675,66.7430835 L144.261953,55.6637168 L144.995036,56.0700832 L164.228553,66.7437195 L163.49547,67.1507218 L144.261953,56.4770855 L125.029097,67.1500859 L144.262614,77.8230862 L157.545452,70.4525282 L144.263276,77.8230862 M164.960975,67.1507218 L164.411163,66.84547 L164.278837,66.7717009 L164.961637,67.1507218" id="Fill-31" fill="#D1E9F2"></path>
                    <path d="M164.926829,89.5132743 L171.866652,85.658835 L164.926829,89.5132743 M164.194373,89.106272 L144.976658,78.4332717 L144.977319,78.4332717 L144.33609,78.0771446 L144.245524,78.0262694 L163.461256,67.353905 L164.193712,66.9469027 L164.243953,66.9748841 L164.376165,67.0486532 L164.925507,67.353905 L184.143223,78.0269053 L183.410767,78.4339076 L164.193712,67.7609073 L144.977319,78.4332717 L164.194373,89.106272 L177.465842,81.7357141 L164.194373,89.106272" id="Fill-32" fill="#D1E9F2"></path>
                    <path d="M184.893071,100.795824 L193.313744,96.1236963 L184.893071,100.79646 M183.427542,100.795824 L172.547559,94.7583691 L183.427542,100.795824 M184.160637,100.389469 L174.543722,95.0528016 L184.160637,100.389469 L196.80521,93.3726924 L184.160637,100.389469 M204.859335,89.7167698 L204.309513,89.4115266 L204.208944,89.3555654 L204.859335,89.7167698 M203.393806,89.7167698 L184.160637,79.0434343 L164.926807,89.7161338 L164.194373,89.309143 L183.427542,78.6370794 L184.160637,78.2300885 L184.893071,78.6370794 L184.893733,78.6370794 L204.12624,89.3097789 L203.393806,89.7167698" id="Fill-33" fill="#D1E9F2"></path>
                    <path d="M204.842245,112.079646 L210.372791,109.010594 L204.842245,112.079646 M204.109162,111.67328 L184.875644,101.000279 L184.875644,100.999643 L184.216663,100.633977 L184.143223,100.593277 L203.376078,89.9202767 L204.109162,89.5132743 L204.191203,89.5590621 L204.291771,89.6150249 L204.841583,89.9202767 L224.075101,100.593277 L223.342679,100.999643 L204.109162,90.3266431 L184.875644,100.999643 L204.109823,111.67328 L213.72592,106.336461 L204.109823,111.67328 M224.807523,101.000279 L224.258372,100.695028 L224.188239,100.655599 L224.808184,100.999643" id="Fill-34" fill="#D1E9F2"></path>
                    <path d="M224.773377,123.362832 L234.381243,118.02665 L224.773377,123.362832 M224.040921,122.956465 L204.823867,112.283465 L204.823867,112.282829 L204.182637,111.926702 L204.092072,111.876463 L224.04026,100.79646 L224.040921,100.79646 L224.153301,100.858782 L224.223374,100.898211 L224.772055,101.203463 L243.98977,111.876463 L243.257314,112.282829 L224.04026,101.609829 L204.823867,112.282829 L224.040921,122.956465 L233.649448,117.619647 L224.040921,122.956465" id="Fill-35" fill="#D1E9F2"></path>
                    <path d="M244.739943,134.646018 L251.686372,130.791578 L244.740605,134.646018 M244.007521,134.239651 L224.774004,123.566015 L224.156706,123.223879 L224.040921,123.159649 L243.273776,112.486012 L244.00686,112.079646 L244.739943,112.486012 L263.97346,123.160285 L263.240377,123.566651 L244.00686,112.893015 L224.774004,123.566015 L244.007521,134.239015 L256.294609,127.42109 L244.007521,134.239651 L244.007521,134.239015 M264.705882,123.566651 L264.15607,123.262035 L264.021759,123.186994 L264.705882,123.566651" id="Fill-36" fill="#D1E9F2"></path>
                    <path d="M264.689454,145.929204 L264.688792,145.929204 L274.305551,140.592871 L264.689454,145.929204 M263.956371,145.52219 L244.722192,134.848889 L244.10357,134.505471 L243.98977,134.442511 L263.222625,123.76921 L263.955709,123.362832 L264.004008,123.389542 L264.138318,123.464585 L264.688131,123.76921 L283.921648,134.443147 L283.189226,134.849525 L263.955709,124.176224 L244.722192,134.848889 L263.956371,145.52219 L275.303286,139.225559 L263.956371,145.52219 M284.654731,134.849525 L284.104919,134.5449 L283.987811,134.479396 L284.654731,134.849525" id="Fill-37" fill="#D1E9F2"></path>
                    <path d="M85.1323464,66.9469027 L95.9544285,60.9467979 L85.1330086,66.9469027 M83.6656076,66.9469027 L63.6828645,55.8662641 L83.6649454,44.7868974 L84.3986459,44.380531 L84.5814088,44.4822816 L104.382051,55.4605336 L103.648351,55.8669 L84.3986459,45.1938997 L65.1496032,55.8662641 L84.3993081,66.5399003 L97.0940481,59.5013037 L84.3993081,66.5399003 L83.6656076,66.9469027 M105.11509,55.8669 L104.564814,55.5622842 L104.44827,55.4967823 L105.11509,55.8669" id="Fill-39" fill="#D1E9F2"></path>
                    <path d="M105.098,78.2300885 L113.619764,73.5012301 L105.098,78.2300885 M104.364916,77.8230862 L84.5815862,66.84547 L84.398977,66.7430835 L103.631833,56.0700832 L104.364916,55.6637168 L104.431079,55.6999655 L104.547525,55.7654674 L105.097338,56.0700832 L124.330855,66.7430835 L123.598433,67.1500859 L104.364916,56.4770855 L85.1313988,67.1500859 L104.365578,77.8230862 L113.981675,72.486904 L104.365578,77.8230862 M125.063939,67.1500859 L124.514126,66.84547 L124.42216,66.7939588 L125.063939,67.1500859" id="Fill-40" fill="#D1E9F2"></path>
                    <path d="M125.046849,89.5132743 L134.663607,84.1766066 L125.046849,89.5132743 M124.313765,89.1062835 L105.080248,78.4335839 L104.460964,78.0895495 L104.347826,78.0265931 L123.580682,67.3538935 L124.313765,66.9469027 L124.404408,66.9977765 L124.496374,67.0492863 L125.046187,67.3538935 L144.279704,78.0265931 L143.547282,78.4335839 L124.313765,67.7608844 L105.080248,78.4335839 L124.314427,89.1062835 L132.734301,84.4335196 L124.314427,89.1062835 M145.012126,78.4335839 L144.462975,78.1283408 L144.371009,78.0774669 L145.012788,78.4335839" id="Fill-41" fill="#D1E9F2"></path>
                    <path d="M144.97798,100.79646 L144.97798,100.795824 L154.585846,95.4597924 L144.97798,100.79646 M144.245524,100.389469 L125.02847,89.7167698 L124.4117,89.3740071 L124.296675,89.3097789 L143.513068,78.6370794 L144.244863,78.2300885 L144.245524,78.2300885 L144.33609,78.2809624 L144.427977,78.3318362 L144.976658,78.6370794 L164.194373,89.3097789 L163.461917,89.7167698 L144.244863,79.0434343 L125.02847,89.7167698 L144.245524,100.389469 L152.658852,95.7167054 L144.246185,100.389469 L144.245524,100.389469" id="Fill-42" fill="#D1E9F2"></path>
                    <path d="M164.944884,112.079646 L174.561137,106.743464 L164.944884,112.079646 M163.478693,112.079646 L149.776822,104.475698 L163.479354,112.079646 L163.478693,112.079646 M164.211788,111.67328 L157.662229,108.038876 L164.211788,111.67328 L172.84617,106.882099 L164.211788,111.67328 M184.910486,101.000915 L184.360664,100.695664 L184.251494,100.634613 L184.910486,101.000279 M183.444957,101.000279 L164.211788,90.3266431 L144.97862,101.000279 L144.245524,100.593277 L163.478693,89.9202767 L164.211788,89.5132743 L164.944884,89.9202767 L184.178052,100.593913 L183.444957,101.000279" id="Fill-43" fill="#D1E9F2"></path>
                    <path d="M184.893396,123.362832 L196.557231,116.890223 L184.893396,123.362832 M183.427891,123.362832 L178.141485,120.429235 L183.427891,123.362832 M184.160974,122.956465 L170.213862,115.216426 L184.160974,122.956465 L193.777071,117.619647 L184.160974,122.956465 M204.859335,112.283465 L204.309522,111.978213 L204.217556,111.926702 L204.859335,112.282829 M203.39383,112.282829 L184.160312,101.609829 L164.926795,112.282193 L164.194373,111.875827 L183.427229,101.202827 L184.160312,100.79646 L184.233753,100.83716 L184.342922,100.898211 L184.892734,101.203463 L204.126252,111.876463 L203.39383,112.282829" id="Fill-44" fill="#D1E9F2"></path>
                    <path d="M204.842245,134.646018 L216.505418,128.173409 L204.842245,134.646018 M204.109162,134.239651 L184.875644,123.566015 L184.253714,123.220699 L184.143223,123.159649 L203.376078,112.486012 L204.109162,112.079646 L204.199805,112.129885 L204.291771,112.181397 L204.841583,112.486648 L224.075101,123.159649 L223.342679,123.566015 L204.109162,112.893015 L184.875644,123.566015 L204.109823,134.239015 L213.72592,128.902833 L204.109823,134.239651 L204.109823,134.239015 M224.808184,123.566015 L224.258372,123.261399 L224.190886,123.223879 L224.808184,123.566015" id="Fill-45" fill="#D1E9F2"></path>
                    <path d="M224.791431,145.929204 L238.493964,138.325255 L224.791431,145.929204 M224.058336,145.522201 L204.234324,134.521691 L204.092072,134.442835 L223.32524,123.769198 L224.057674,123.362832 L224.173461,123.427062 L224.240948,123.464582 L224.790769,123.769198 L244.024599,134.442835 L243.291504,134.849201 L224.057674,124.176201 L204.824505,134.849201 L224.058336,145.522201 L230.607895,141.887798 L224.058336,145.522201 M244.757033,134.849201 L244.207212,134.544585 L244.138401,134.505793 L244.757033,134.849201" id="Fill-46" fill="#D1E9F2"></path>
                    <path d="M85.1330086,89.5132743 L95.7405428,83.6314546 L85.1330086,89.5132743 M83.6662698,89.5126384 L63.6828645,78.4332717 L83.6649454,67.353905 L84.3986459,66.9469027 L84.5814088,67.0492892 L104.381389,78.0269053 L103.648351,78.4339076 L84.3986459,67.7609073 L65.1496032,78.4332717 L84.3993081,89.106272 L91.3509215,85.2518327 L83.6662698,89.5126384 M105.11509,78.4339076 L104.564814,78.1286559 L104.495285,78.0898635 L105.11509,78.4339076" id="Fill-50" fill="#D1E9F2"></path>
                    <path d="M105.098,100.79646 L114.714758,95.4597924 L105.098,100.79646 M103.632494,100.795824 L97.302702,97.2836203 L103.632494,100.79646 L103.632494,100.795824 M104.365578,100.389469 L91.4618527,93.2283378 L104.365578,100.389469 L113.981675,95.0528016 L104.365578,100.389469 M125.063939,89.7167698 L124.514126,89.4115266 L124.44664,89.3740071 L125.063939,89.7167698 M123.598433,89.7167698 L104.364916,79.0434343 L85.1313988,89.7161338 L84.398977,89.309143 L103.631833,78.6370794 L104.364916,78.2300885 L104.478054,78.2930449 L104.547525,78.3318362 L105.097338,78.6370794 L124.330855,89.3097789 L123.598433,89.7167698" id="Fill-51" fill="#D1E9F2"></path>
                    <path d="M125.029131,112.079646 L137.662675,105.063307 L125.029131,112.079646 M124.296675,111.67328 L105.079621,101.000279 L104.446985,100.648604 L104.347826,100.593277 L123.564219,89.9202767 L124.296675,89.5132743 L124.4117,89.5775044 L124.479128,89.6150249 L125.02847,89.9202767 L144.245524,100.593277 L143.513729,100.999643 L124.296675,90.3266431 L105.079621,101.000279 L124.296675,111.67328 L130.880185,108.016618 L124.297336,111.67328 L124.296675,111.67328" id="Fill-52" fill="#D1E9F2"></path>
                    <path d="M144.978323,123.362832 L154.586348,118.02665 L144.978323,123.362832 M144.245855,122.956465 L125.028482,112.282829 L124.362121,111.913347 L124.296675,111.876463 L143.513387,101.202827 L144.245194,100.79646 L144.977662,101.202827 L144.977662,101.203463 L164.194373,111.876463 L163.461905,112.282829 L144.245194,101.609829 L125.028482,112.282829 L144.245855,122.956465 L153.85388,117.619647 L144.245855,122.956465" id="Fill-53" fill="#D1E9F2"></path>
                    <path d="M164.944222,134.646018 L175.54367,128.764834 L164.944884,134.646018 M163.478693,134.646018 L155.058682,129.973122 L163.479354,134.646018 L163.478693,134.646018 M164.211788,134.239651 L164.211788,134.239015 L154.594873,128.902833 L164.211788,134.239015 L171.157669,130.385212 L164.211788,134.239651 M184.910486,123.566651 L184.360664,123.262035 L184.288546,123.221335 L184.910486,123.566651 M183.444957,123.566651 L164.211127,112.893015 L144.97862,123.566015 L144.245524,123.159649 L163.478031,112.486012 L164.211127,112.079646 L164.944222,112.486012 L184.178052,123.160285 L183.444957,123.566651" id="Fill-54" fill="#D1E9F2"></path>
                    <path d="M184.894058,145.929204 L184.893396,145.929204 L192.779337,141.553169 L184.894058,145.929204 M184.160312,145.52219 L164.926795,134.848889 L164.248627,134.472401 L164.194373,134.442511 L183.427229,123.76921 L184.160312,123.362832 L184.270804,123.423884 L184.342922,123.464585 L184.892734,123.76921 L204.126252,134.443147 L203.39383,134.849525 L184.160312,124.176224 L164.926795,134.848889 L184.160974,145.52219 L193.777071,140.185857 L184.160974,145.52219 M204.859335,134.849525 L204.309522,134.5449 L204.269163,134.522006 L204.859335,134.849525" id="Fill-55" fill="#D1E9F2"></path>
                    <path d="M85.1323464,112.07901 L96.4894736,105.782734 L85.1330086,112.079646 M83.6662698,112.07901 L63.6828645,100.999956 L84.3986459,89.5132743 L85.1323464,89.9202652 L104.382051,100.593601 L103.648351,100.999956 L84.3986459,90.3266201 L65.1496032,100.999956 L84.3993081,111.672655 L94.0241605,106.336623 L83.6662698,112.07901 M105.11509,101.000592 L104.564814,100.695348 L104.481379,100.648926 L105.11509,101.000592" id="Fill-59" fill="#D1E9F2"></path>
                    <path d="M105.098661,123.362832 L105.098,123.362832 L113.732241,118.571516 L105.098661,123.362832 M104.364916,122.956454 L84.5815862,111.977893 L84.398977,111.876139 L103.631833,101.202838 L104.364916,100.79646 L104.46416,100.851789 L104.547525,100.898214 L105.097338,101.203474 L124.330855,111.876775 L123.598433,112.283153 L104.364916,101.609852 L85.1313988,112.282517 L104.365578,122.956454 L116.683101,116.12053 L104.365578,122.956454 M125.063939,112.283153 L124.397018,111.913661 L125.063939,112.283153" id="Fill-60" fill="#D1E9F2"></path>
                    <path d="M125.029131,134.646018 L134.637658,129.3092 L125.029131,134.646018 M123.56488,134.646018 L110.6722,127.48532 L123.56488,134.646018 M124.297336,134.239015 L119.014795,131.305419 L124.297336,134.239015 L131.859878,130.038624 L124.297336,134.239651 M143.513729,123.566015 L124.296014,112.893015 L105.079621,123.565379 L104.347826,123.159013 L124.296014,112.079646 L124.296675,112.079646 L124.36212,112.116531 L125.02847,112.486012 L144.245524,123.159649 L143.513729,123.566015" id="Fill-61" fill="#D1E9F2"></path>
                    <path d="M144.99571,145.929204 L151.584413,142.272542 L144.99571,145.929204 M143.529495,145.929204 L135.008115,141.200345 L143.530157,145.929204 L143.529495,145.929204 M144.263264,145.522201 L144.262602,145.522201 L131.578787,138.483605 L144.262602,145.522201 L157.965358,137.918253 L144.263264,145.522201 M164.961637,134.849201 L164.411806,134.544585 L164.283446,134.472724 L164.961637,134.849201 M163.496745,134.849201 L144.262602,124.176201 L125.029121,134.849201 L124.296675,134.442199 L144.262602,123.362832 L144.99571,123.769198 L164.229191,134.442835 L163.496084,134.849201" id="Fill-62" fill="#D1E9F2"></path>
                    <path d="M85.1146576,134.646018 L92.6844632,130.445626 L85.1153192,134.646018 M83.64979,134.646018 L63.6828645,123.566015 L84.3815622,112.079646 L84.5641744,112.181397 L104.347826,123.159649 L103.615392,123.566015 L84.3815622,112.893015 L65.1483936,123.566015 L84.3822238,134.239015 L93.9991389,128.902833 L84.3822238,134.239651 L84.3822238,134.239015 L83.64979,134.646018" id="Fill-66" fill="#D1E9F2"></path>
                    <path d="M105.080943,145.929204 L105.080282,145.929204 L114.688809,140.593021 L105.080943,145.929204 M104.348487,145.522201 L84.5814299,134.544585 L84.398977,134.442835 L103.61537,123.769198 L104.347826,123.362832 L105.079621,123.769198 L105.080282,123.769198 L124.296675,134.44347 L123.56488,134.849837 L104.347826,124.176201 L85.1307719,134.849201 L104.348487,145.522201 L113.956353,140.186019 L104.348487,145.522201" id="Fill-67" fill="#D1E9F2"></path>
                    <path d="M287.983538,98.1548848 L232.235488,66.6042998 C229.207295,64.8896153 223.913428,65.0969845 220.411148,67.0669925 L103.411654,132.873683 C99.9093744,134.843043 99.525463,137.830457 102.552992,139.543845 L158.301706,171.095078 C161.329898,172.809115 166.623102,172.602393 170.126045,170.632385 L287.125539,104.825047 C290.627819,102.855687 291.01173,99.8689213 287.983538,98.1548848" id="Fill-159" fill="#7DBCDB"></path>
                    <path d="M227.028154,58.3323492 C224.873929,58.3323492 222.586718,58.837151 220.842695,59.8157695 L104.097693,125.369005 C102.591852,126.213999 101.692714,127.310749 101.691391,128.302278 C101.690068,129.284124 102.534291,129.967091 103.243545,130.367963 L158.869673,161.797367 C161.572379,163.323392 166.52723,163.11295 169.694392,161.33517 L286.439394,95.7819345 C287.945235,94.9375856 288.844373,93.8401902 288.845696,92.8486612 C288.847019,91.8668151 288.002796,91.1832024 287.293542,90.7829758 L231.667414,59.3529269 C230.453346,58.668023 228.785409,58.3323492 227.028154,58.3323492 Z M163.537382,164.734513 C161.439394,164.734513 159.428078,164.30782 157.893788,163.441523 L102.266998,132.01212 C100.637435,131.090953 99.7416049,129.772142 99.7442514,128.29905 C99.7468978,126.595505 100.979491,124.927464 103.125777,123.722266 L219.870779,58.1696764 C223.690957,56.0226547 229.300809,55.8206048 232.643299,57.7094159 L288.269428,89.1388193 C289.898991,90.0593404 290.79482,91.3781514 290.792836,92.8512433 C290.790851,94.5554338 289.557596,96.2241203 287.41131,97.4286731 L170.666308,162.981908 C168.599416,164.142565 166.008523,164.734513 163.537382,164.734513 Z" id="Fill-160" fill="#FFFFFE"></path>
                    <path d="M156.498378,151.139342 L98.6439769,118.372643 C96.7430249,117.295918 95.8576771,115.844118 95.9204912,114.334117 L95.9079284,114.338644 L95.9310704,106.12773 L99.1484731,109.814461 C99.3567513,109.679951 99.5676743,109.545441 99.7951273,109.416105 L218.148731,42.8008075 C222.846562,40.1558806 229.94918,39.8771609 234.012259,42.1787 L291.054044,74.4856093 C292.207839,73.2498012 294.629156,70.6391484 294.629156,70.6391484 L294.601386,78.6702847 L294.600724,78.669638 C294.686019,80.4796992 293.368246,82.4087498 290.715509,83.9012905 L172.361905,150.517881 C167.664074,153.162808 160.561456,153.441528 156.498378,151.139342" id="Fill-161" fill="#3B6397"></path>
                    <g id="Group-165" stroke-width="1" fill="none" transform="translate(163.427110, 40.619469)">
                        <mask id="mask-5" fill="white">
                            <use xlink:href="#path-4"></use>
                        </mask>
                        <g id="Clip-164"></g>
                        <path d="M54.8819905,2.58362908 C59.5937591,-0.0502425999 66.7174491,-0.327865171 70.7925818,1.96461448 L128.003599,34.1443556 C129.160817,32.9134119 131.589317,30.3130353 131.589317,30.3130353 L131.561465,38.312559 L131.560801,38.3119149 C131.646349,40.1148512 130.324667,42.0363086 127.664059,43.5229743 L8.95998663,109.877345 C6.50098061,111.251931 3.38809649,111.977873 0.392592117,112.03971 L0.505329718,32.9791138 L54.8819905,2.58362908" id="Fill-163" fill="url(#linearGradient-6)" mask="url(#mask-5)"></path>
                    </g>
                    <path d="M291.889731,66.6718024 L234.0295,33.9043842 C229.966012,31.6034868 222.862678,31.8809137 218.163713,34.5258464 L99.7995036,101.142583 C95.0998766,103.787516 94.5847493,107.796949 98.6475759,110.097847 L156.507807,142.865265 C160.571295,145.166809 167.673967,144.888735 172.373594,142.243803 L290.737803,75.6277127 C295.436769,72.98278 295.952557,68.9733465 291.889731,66.6718024" id="Fill-166" fill="#D4EAF2"></path>
                    <path d="M156.50438,143.626649 L98.6385624,111.040608 C96.5428278,109.859871 95.6751712,108.227675 95.960863,106.56268 C96.0633682,107.91577 96.9554938,109.196188 98.6828711,110.16856 L156.548028,142.754601 C160.611861,145.043405 167.715138,144.766871 172.415165,142.136578 L290.78945,75.8892289 C293.065065,74.6152414 294.350017,73.0235609 294.619175,71.460177 C294.758053,73.2885195 293.446648,75.2486981 290.745141,76.7606338 L172.370857,143.007983 C167.671491,145.638275 160.567553,145.91481 156.50438,143.626649" id="Fill-167" fill="#FFFFFE"></path>
                    <g id="Group-170" stroke-width="1" fill="none" transform="translate(99.744246, 35.353982)">
                        <mask id="mask-8" fill="white">
                            <use xlink:href="#path-7"></use>
                        </mask>
                        <g id="Clip-169"></g>
                        <path d="M187.991324,33.0157482 L132.248176,1.46704979 C129.22025,-0.246884263 123.926849,-0.0401753918 120.424877,1.93036278 L3.43567196,67.7324707 C-0.066300115,69.7023609 -0.450177781,72.6889476 2.57708547,74.4028817 L58.3208961,105.952228 C61.3488224,107.666162 66.6415605,107.458805 70.1441956,105.489563 L187.1334,39.6861592 C190.635373,37.7162691 191.01925,34.7303303 187.991324,33.0157482" id="Fill-168" fill="url(#radialGradient-9)" mask="url(#mask-8)"></path>
                    </g>
                    <polyline id="Fill-171" fill="#D4EAF2" points="172.450102 124.867257 133.503836 102.948133 135.989796 101.548673 174.936061 123.467796 172.450102 124.867257"></polyline>
                    <polyline id="Fill-172" fill="#D4EAF2" points="144.823575 118.097345 125.063939 106.741711 127.554284 105.309735 147.314578 116.666023 144.823575 118.097345"></polyline>
                    <polyline id="Fill-173" fill="#DA3685" points="154.71244 124.115044 148.081841 120.323166 150.658404 118.849558 157.289003 122.641436 154.71244 124.115044"></polyline>
                    <polyline id="Fill-174" fill="#FFFFFE" points="164.686865 129.380531 158.056266 125.588464 160.632828 124.115044 167.263427 127.906437 164.686865 129.380531"></polyline>
                    <polyline id="Fill-175" fill="#FFFFFE" points="144.838895 113.584071 128.900256 104.469271 131.375939 103.053097 147.314578 112.167897 144.838895 113.584071"></polyline>
                    <polyline id="Fill-176" fill="#D4EAF2" points="164.787744 124.867257 148.849105 115.751897 151.324788 114.336283 167.263427 123.451643 164.787744 124.867257"></polyline>
                    <path d="M152.890947,105.731215 C152.14135,106.172191 150.927627,106.172191 150.178643,105.731215 C149.429046,105.290865 149.429046,104.576548 150.17803,104.135572 C150.927627,103.695222 152.14135,103.695222 152.890947,104.135572 C153.639931,104.576548 153.639931,105.290865 152.890947,105.731215" id="Fill-177" fill="#DA3685"></path>
                    <path d="M157.494515,107.988253 C156.745411,108.428694 155.53088,108.428694 154.781777,107.988253 C154.032673,107.547811 154.032673,106.83272 154.781777,106.392278 C155.53088,105.951837 156.745411,105.951837 157.493901,106.392278 C158.243619,106.833345 158.243619,107.547811 157.494515,107.988253" id="Fill-178" fill="#FFFFFE"></path>
                    <path d="M161.330373,110.24489 C160.581375,110.685332 159.367628,110.685332 158.618015,110.24489 C157.869016,109.804449 157.869016,109.089357 158.618015,108.648915 C159.367628,108.208474 160.581375,108.208474 161.330373,108.648915 C162.079986,109.089357 162.079986,109.804449 161.330373,110.24489" id="Fill-179" fill="#D4EAF2"></path>
                    <path d="M165.934347,113.25374 C165.185258,113.694181 163.970752,113.694181 163.221663,113.25374 C162.472574,112.813298 162.472574,112.098832 163.221663,111.657765 C163.970138,111.217323 165.185258,111.217323 165.934347,111.657765 C166.683436,112.098832 166.683436,112.813298 165.934347,113.25374" id="Fill-180" fill="#DA3685"></path>
                    <path d="M170.537731,115.510445 C169.788687,115.950795 168.574254,115.950795 167.82521,115.510445 C167.076166,115.06947 167.076166,114.355152 167.82521,113.914802 C168.574254,113.473827 169.788687,113.473827 170.537731,113.914802 C171.286775,114.355152 171.287389,115.06947 170.537731,115.510445" id="Fill-181" fill="#FFFFFE"></path>
                    <polyline id="Fill-182" fill="#DA3685" points="258.292994 68.4513274 251.662404 64.6598351 254.239639 63.1858407 260.869565 66.977333 258.292994 68.4513274"></polyline>
                    <polyline id="Fill-183" fill="#FFFFFE" points="267.499677 73.7168142 260.869565 69.9248484 263.446615 68.4513274 270.076726 72.2432932 267.499677 73.7168142"></polyline>
                    <polyline id="Fill-184" fill="#FFFFFE" points="229.136798 51.9026549 222.506394 48.11182 225.083151 46.6371681 231.713555 50.4293179 229.136798 51.9026549"></polyline>
                    <polyline id="Fill-185" fill="#FFFFFE" points="256.823418 72.2123894 247.826087 66.9192979 250.337707 65.4424779 259.335038 70.7342514 256.823418 72.2123894"></polyline>
                    <polyline id="Fill-186" fill="#D4EAF2" points="263.555295 75.9734513 259.335038 73.6744084 262.020153 72.2123894 266.240409 74.5107799 263.555295 75.9734513"></polyline>
                    <path d="M275.583018,125.619469 C275.441986,125.619469 275.298959,125.586711 275.16591,125.518574 C274.723521,125.291234 274.551888,124.754004 274.783394,124.318978 C275.699436,122.590668 277.044562,121.134904 278.472179,120.321851 C279.37026,119.811482 280.253706,119.573004 281.071292,119.613624 C282.256759,119.66145 283.685706,118.808433 284.949672,117.308118 C285.659489,116.466893 286.470423,115.773735 287.296658,115.304641 C288.193409,114.794927 289.06355,114.550552 289.895771,114.596414 C291.07259,114.634413 292.510185,113.791223 293.774152,112.290908 C294.483303,111.449028 295.294902,110.756525 296.120472,110.287431 C297.018553,109.777062 297.891355,109.536618 298.720251,109.579204 C299.902391,109.614582 301.333999,108.773358 302.599296,107.273043 C303.307117,106.432473 304.118716,105.73997 304.944951,105.269566 C306.268789,104.516132 307.589966,104.354308 308.664338,104.81423 C309.121361,105.010778 309.330913,105.534905 309.132005,105.985655 C308.933097,106.435749 308.402231,106.641469 307.943212,106.446232 C307.41035,106.216271 306.66461,106.345992 305.847689,106.809845 C305.205727,107.175424 304.562435,107.729034 303.988328,108.409744 C302.336524,110.368015 300.386025,111.444442 298.630442,111.355341 C298.150801,111.33241 297.60663,111.4962 297.023875,111.82771 C296.381248,112.193289 295.737956,112.746244 295.164514,113.426954 C293.513375,115.38457 291.576181,116.456411 289.805963,116.372551 C289.32233,116.34831 288.782816,116.512755 288.199396,116.845576 C287.556769,117.210499 286.913477,117.763454 286.340035,118.444164 C284.690227,120.40178 282.749041,121.475586 280.981484,121.389761 C280.504503,121.364209 279.957672,121.53062 279.374917,121.862786 C278.236682,122.510083 277.146345,123.705749 276.383974,125.141858 C276.222984,125.445852 275.908323,125.619469 275.583018,125.619469" id="Fill-187" fill="#FFFFFE"></path>
                    <path d="M209.462916,16.2920912 C209.462916,17.4062058 208.604444,18.7612099 207.545491,19.3186017 C206.48507,19.8759936 205.626598,19.4249947 205.626598,18.310211 C205.626598,17.1947582 206.48507,15.8404232 207.545491,15.2830314 C208.604444,14.7256395 209.462916,15.1773076 209.462916,16.2920912" id="Fill-192" fill="#FFFFFE"></path>
                    <path d="M214.066496,13.2832795 C214.066496,14.398097 213.208025,15.7531422 212.149072,16.3098818 C211.08865,16.8672905 210.230179,16.4156087 210.230179,15.3007913 C210.230179,14.186643 211.08865,12.8315978 212.149072,12.274189 C213.208025,11.7167803 214.066496,12.1684621 214.066496,13.2832795" id="Fill-193" fill="#FFFFFE"></path>
                    <path d="M209.462916,11.0266756 C209.462916,12.1408536 208.604444,13.4959349 207.545491,14.0533585 C206.48507,14.6107821 205.626598,14.1584191 205.626598,13.0442411 C205.626598,11.929394 206.48507,10.5743126 207.545491,10.0175582 C208.604444,9.46013465 209.462916,9.91182843 209.462916,11.0266756" id="Fill-194" fill="#FFFFFE"></path>
                    <path d="M214.066496,8.01722263 C214.066496,9.13133715 213.208025,10.4870104 212.149072,11.0444023 C211.08865,11.6017941 210.230179,11.1501261 210.230179,10.0353424 C210.230179,8.92122786 211.08865,7.56622371 212.149072,7.00883188 C213.208025,6.45144005 214.066496,6.90243896 214.066496,8.01722263" id="Fill-195" fill="#FFFFFE"></path>
                    <polyline id="Fill-196" fill="#FFFFFE" points="104.347826 78.4806042 100.511509 80.4867257 100.511509 76.475148 104.347826 74.4690265 104.347826 78.4806042"></polyline>
                    <polyline id="Fill-197" fill="#FFFFFE" points="110.485934 75.4717547 106.649616 77.4778761 106.649616 73.4662984 110.485934 71.460177 110.485934 75.4717547"></polyline>
                    <polyline id="Fill-198" fill="#FFFFFE" points="115.856777 71.7113579 112.02046 73.7168142 112.02046 69.7052365 115.856777 67.699115 115.856777 71.7113579"></polyline>
                    <polyline id="Fill-199" fill="#FFFFFE" points="121.227621 68.7020649 117.391304 70.7079646 117.391304 66.6955001 121.227621 64.6902655 121.227621 68.7020649"></polyline>
                    <path d="M267.163321,2.20222448 C266.554837,2.54634459 265.981407,3.04016666 265.4761,3.62277302 C265.396732,0.36302887 263.009093,-0.939572671 260.069188,0.72335049 C259.126699,1.2560562 258.241751,2.03048845 257.469902,2.94554984 C256.16166,0.703908676 253.449276,0.18286806 250.306983,1.96049792 C245.887535,4.46071521 242.305415,10.5408185 242.305415,15.539957 C242.305415,15.9527715 242.338485,16.3377194 242.386105,16.70841 C241.755133,16.5489871 240.982623,16.6779512 240.145295,17.1516834 C238.031474,18.3473549 236.317136,21.2571464 236.317136,23.6491376 C236.317136,26.0417769 238.031474,27.0112753 240.145295,25.8149557 L267.163321,10.5304496 C269.196452,9.38079028 270.84399,6.5837613 270.84399,4.2837947 C270.84399,1.98447616 269.196452,1.05191715 267.163321,2.20222448" id="Fill-204" fill="#FFFFFE"></path>
                    <path d="M216.644472,100.060001 C207.805449,105.053746 193.473982,105.053746 184.634959,100.060001 C175.795277,95.0662552 175.795277,86.9691431 184.6343,81.9753976 C193.473323,76.9816521 207.804791,76.9816521 216.643814,81.9753976 C225.483495,86.9691431 225.483495,95.0662552 216.644472,100.060001" id="Fill-229" fill="#1F2A4C"></path>
                    <path d="M229.411765,73.5509988 L229.411765,65.7896122 L227.907162,65.7896122 C226.555412,63.523906 224.305153,61.3902204 221.096574,59.5865863 C210.009432,53.3531438 192.033946,53.3531438 180.947468,59.5865863 C177.738224,61.3902204 175.487966,63.523906 174.13688,65.7896122 L172.634271,65.7896122 L172.634271,73.5095806 L172.636265,73.5095806 C172.617657,77.6086903 175.385621,81.7103886 180.948133,84.8381116 C192.03461,91.0715541 210.010096,91.0715541 221.097239,84.8387587 C226.641142,81.7213903 229.412429,77.6365182 229.411765,73.5509988" id="Fill-230" fill="#DA3685"></path>
                    <path d="M221.096574,59.58595 C215.553335,56.4698687 208.287512,54.9115044 201.023018,54.9115044 L201.023018,89.5132743 C208.288176,89.5132743 215.554,87.9549101 221.097239,84.8388287 C226.641142,81.721453 229.412429,77.6365713 229.411765,73.5510424 L229.411765,65.7896377 L227.907162,65.7896377 C226.555412,63.5239262 224.305153,61.3902356 221.096574,59.58595" id="Fill-231" fill="#A42274"></path>
                    <g id="Group-234" stroke-width="1" fill="none" transform="translate(171.867008, 49.646018)">
                        <mask id="mask-11" fill="white">
                            <use xlink:href="#path-10"></use>
                        </mask>
                        <g id="Clip-233"></g>
                        <path d="M48.7516536,27.3646292 C37.7169503,33.5955956 19.8264838,33.5949487 8.79244201,27.3639823 C-2.24226122,21.1330159 -2.24226122,11.031631 8.79178058,4.8006646 C19.8258224,-1.43030177 37.7162889,-1.42965487 48.7509922,4.8013115 C59.785034,11.0322779 59.785034,21.1336628 48.7516536,27.3646292" id="Fill-232" fill="url(#linearGradient-12)" mask="url(#mask-11)"></path>
                    </g>
                    <path d="M221.117903,77.0249053 C210.019899,83.2889378 192.026802,83.2889378 180.929463,77.0249053 C175.610962,74.023918 172.869556,70.1275117 172.6487,66.1946903 C172.409218,70.4682521 175.149959,74.7840814 180.929463,78.0458262 C192.026802,84.3092084 210.019899,84.3092084 221.117903,78.0458262 C226.896077,74.7840814 229.636818,70.4689024 229.397335,66.1953405 C229.17648,70.1275117 226.436404,74.023918 221.117903,77.0249053" id="Fill-235" fill="#FFFFFE"></path>
                    <path d="M189.442837,66.6788308 L200.685531,60.5559951 C201.956754,59.86349 204.125429,60.1634487 204.635666,61.1026429 L209.36225,69.800177 C209.896016,70.7824942 208.218754,71.6963218 206.416454,71.4052414 L190.446505,68.830543 C188.722186,68.55278 188.170942,67.3713359 189.442837,66.6788308" id="Fill-236" fill="#FFFFFE"></path>
                    <polyline id="Fill-237" fill="#76A9CF" points="196.763797 115.088496 151.918159 89.4417192 153.108326 88.7610619 197.953964 114.40849 196.763797 115.088496"></polyline>
                    <polyline id="Fill-238" fill="#D4EAF2" points="166.304441 98.539823 151.150895 90.1433866 153.645067 88.7610619 168.797954 97.1587636 166.304441 98.539823"></polyline>
                    <polyline id="Fill-239" fill="#FFFFFE" points="165.606445 99.2920354 164.961637 98.982223 168.92041 97.0353982 169.565217 97.3452106 165.606445 99.2920354"></polyline>
                    <path d="M19.1815857,63.3922394 C18.4516632,63.3922394 17.8575874,63.9746615 17.8575874,64.6902655 C17.8575874,65.4058694 18.4516632,65.9882915 19.1815857,65.9882915 C19.9115082,65.9882915 20.505584,65.4058694 20.505584,64.6902655 C20.505584,63.9746615 19.9115082,63.3922394 19.1815857,63.3922394 Z M19.1815857,67.699115 C17.4892469,67.699115 16.112532,66.3494065 16.112532,64.6902655 C16.112532,63.0311245 17.4892469,61.6814159 19.1815857,61.6814159 C20.8739245,61.6814159 22.2506394,63.0311245 22.2506394,64.6902655 C22.2506394,66.3494065 20.8739245,67.699115 19.1815857,67.699115 Z" id="Fill-240" fill="#FFFFFE"></path>
                    <path d="M10.741688,63.3922394 C10.0117655,63.3922394 9.41768969,63.9746615 9.41768969,64.6902655 C9.41768969,65.4058694 10.0117655,65.9882915 10.741688,65.9882915 C11.4716105,65.9882915 12.0656863,65.4058694 12.0656863,64.6902655 C12.0656863,63.9746615 11.4716105,63.3922394 10.741688,63.3922394 Z M10.741688,67.699115 C9.04934918,67.699115 7.67263427,66.3494065 7.67263427,64.6902655 C7.67263427,63.0311245 9.04934918,61.6814159 10.741688,61.6814159 C12.4340268,61.6814159 13.8107417,63.0311245 13.8107417,64.6902655 C13.8107417,66.3494065 12.4340268,67.699115 10.741688,67.699115 Z" id="Fill-241" fill="#FFFFFE"></path>
                    <path d="M4.60358056,64.6902655 C4.60358056,65.9366236 3.57308676,66.9469027 2.30179028,66.9469027 C1.0304938,66.9469027 0,65.9366236 0,64.6902655 C0,63.4439074 1.0304938,62.4336283 2.30179028,62.4336283 C3.57308676,62.4336283 4.60358056,63.4439074 4.60358056,64.6902655" id="Fill-242" fill="#FFFFFE"></path>
                    <path d="M283.73702,28.697132 C283.108118,28.697132 282.386653,28.9132324 281.620548,29.3409971 C278.716308,30.9588983 276.353002,34.909543 276.353002,38.1466129 C276.353002,39.5389078 276.796122,40.5516011 277.600302,40.999645 C278.402513,41.4476889 279.533618,41.311438 280.782888,40.6149736 C283.687128,38.9970725 286.050433,35.0470615 286.050433,31.8093579 C286.050433,30.4176968 285.607314,29.403736 284.803133,28.955692 C284.493278,28.782685 284.13353,28.697132 283.73702,28.697132 Z M278.660508,42.8761062 C277.975149,42.8761062 277.334431,42.7176748 276.762642,42.3989109 C275.419496,41.6504811 274.680307,40.1403132 274.680307,38.1466129 C274.680307,34.3315854 277.361346,29.8486113 280.782888,27.9410975 C282.571779,26.9448811 284.296992,26.8073626 285.640137,27.5564262 C286.983939,28.3054897 287.723785,29.8156575 287.723785,31.8093579 C287.723785,35.6250191 285.042746,40.1073595 281.620548,42.0148733 C280.59251,42.5871274 279.585479,42.8761062 278.660508,42.8761062 Z" id="Fill-245" fill="#FFFFFE"></path>
                </g>
            </g>
        </g>
    </g>
</svg>